<svg xmlns="http://www.w3.org/2000/svg" xmlns:xlink="http://www.w3.org/1999/xlink" width="284" height="229" viewBox="0 0 284 229">
  <defs>
    <clipPath id="clip-path">
      <rect id="Rectángulo_408049" data-name="Rectángulo 408049" width="166.143" height="162.246" fill="none"/>
    </clipPath>
  </defs>
  <g id="Grupo_1115729" data-name="Grupo 1115729" transform="translate(-370.102 -2826.817)">
    <rect id="Rectángulo_408046" data-name="Rectángulo 408046" width="284" height="229" rx="12" transform="translate(370.102 2826.817)" fill="#e2dacc"/>
    <g id="Grupo_1115728" data-name="Grupo 1115728" transform="translate(429.03 2854.783)">
      <g id="Grupo_1115727" data-name="Grupo 1115727" transform="translate(0 0)" clip-path="url(#clip-path)">
        <path id="Trazado_983359" data-name="Trazado 983359" d="M164.194,147.736h-7.889v2.046a5.965,5.965,0,0,1-5.94,5.94h-4.479V160.3a1.954,1.954,0,0,1-1.948,1.948H117.644A1.954,1.954,0,0,1,115.7,160.3v-4.577H50.447V160.3a1.954,1.954,0,0,1-1.948,1.948H22.3a1.954,1.954,0,0,1-1.948-1.948v-4.577H15.777a5.944,5.944,0,0,1-5.843-5.94c0-.682-.1-1.364-.1-2.046H1.948A1.954,1.954,0,0,1,0,145.787V66.9a1.954,1.954,0,0,1,1.948-1.948H164.194a1.894,1.894,0,0,1,1.948,1.948v78.883a1.894,1.894,0,0,1-1.948,1.948M78.3,49.083a1.825,1.825,0,0,1-1.851-2.143l2.044-14.219c-2.823,0-6.913.487-7.887-.779a1.889,1.889,0,0,1-.292-1.753L75.475,11a2.119,2.119,0,0,1,1.948-1.364h10.03A1.922,1.922,0,0,1,89.3,12.173l-3.312,9.739c5.747-.1,8.863-.779,9.739.875a1.931,1.931,0,0,1-.1,2.046L79.954,48.3a2.08,2.08,0,0,1-1.655.779M74.7,28.825c9.642,0,8.473-1.362,6.817,10.129L90.375,25.71l-7.4.1a2.04,2.04,0,0,1-1.559-2.63l3.312-9.641H78.883Zm8.376,29.9a29.362,29.362,0,1,1,29.41-29.314,29.343,29.343,0,0,1-29.41,29.314m0-54.829A25.467,25.467,0,1,0,108.586,29.41,25.519,25.519,0,0,0,83.071,3.895M97.193,118.227c-7.791-1.849-7.207-14.608,1.947-14.608,9.057,0,9.739,12.759,1.948,14.608v6.33h30.385a6.875,6.875,0,0,1,7.109-5.551c9.738,0,9.738,14.9,0,14.9a6.888,6.888,0,0,1-7.109-5.453H101.087v15.387h61.159V102.061H124.461a6.876,6.876,0,0,1-7.109,5.551c-9.739,0-9.739-14.9,0-14.9a6.889,6.889,0,0,1,7.109,5.453h37.786V86.09H146.372a6.8,6.8,0,0,1-6.914,4.869c-9.738,0-9.738-14.8,0-14.8a6.907,6.907,0,0,1,7.207,6.038h15.582V68.853H83.461V92.712c7.791,1.851,7.207,14.706-1.948,14.706-9.057,0-9.739-12.855-1.948-14.706V68.853H25.028V84.044c7.791,1.851,7.109,14.706-1.947,14.706-9.155,0-9.739-12.855-1.948-14.706V68.853H3.895V119.4H31.066a6.889,6.889,0,0,1,7.109-5.453c9.739,0,9.739,14.9,0,14.9a6.876,6.876,0,0,1-7.109-5.551H3.895v20.549h47.33V91.835c-7.79-1.851-7.205-14.608,1.948-14.608,9.057,0,9.739,12.758,1.948,14.608v52.005h15V128.648c-7.791-1.851-7.109-14.608,1.947-14.608s9.739,12.758,1.948,14.608v15.193H97.193Zm1.947-10.712c-4.674,0-4.674,7.109,0,7.109s4.676-7.109,0-7.109M38.175,117.837c-4.674,0-4.674,7.109,0,7.109s4.676-7.109,0-7.109M23.081,87.745c-4.676,0-4.676,7.109,0,7.109s4.674-7.109,0-7.109m30.092-6.622c-4.674,0-4.674,7.012,0,7.012s4.675-7.012,0-7.012m18.893,36.811c-4.674,0-4.674,7.012,0,7.012s4.675-7.012,0-7.012m9.447-21.521c-4.674,0-4.674,7.109,0,7.109s4.674-7.109,0-7.109m57.945-16.362c-4.674,0-4.674,7.012,0,7.012s4.675-7.012,0-7.012M117.352,96.608c-4.675,0-4.675,7.108,0,7.108s4.674-7.108,0-7.108m21.23,26.294c-4.675,0-4.675,7.109,0,7.109s4.674-7.109,0-7.109m3.408,32.819h-22.4v2.63h22.4Zm-95.439,0h-22.3v2.63h22.3Zm-32.722-7.986c0,1.461-.39,4.09,1.948,4.09H150.365c2.338,0,2.046-2.629,2.046-4.09Z" transform="translate(0 0)" fill-rule="evenodd"/>
        <path id="Trazado_983360" data-name="Trazado 983360" d="M62.03,35.424l8.863-13.245-7.4.1a2.04,2.04,0,0,1-1.559-2.63l3.312-9.641H59.4L55.213,25.295c9.642,0,8.473-1.362,6.817,10.129" transform="translate(19.483 3.531)" fill="#e1385f" fill-rule="evenodd"/>
        <path id="Trazado_983361" data-name="Trazado 983361" d="M80.6,23.817,64.917,47.288a2.076,2.076,0,0,1-1.655.779,1.825,1.825,0,0,1-1.851-2.143l2.046-14.219c-2.825,0-6.914.487-7.889-.779a1.886,1.886,0,0,1-.292-1.752L60.437,9.988a2.119,2.119,0,0,1,1.948-1.362h10.03a1.921,1.921,0,0,1,1.851,2.531L70.956,20.9c5.746-.1,8.861-.779,9.738.877a1.929,1.929,0,0,1-.1,2.044m-12.563,30A25.466,25.466,0,1,0,42.616,28.4,25.519,25.519,0,0,0,68.034,53.813" transform="translate(15.038 1.016)" fill="#d6edff" fill-rule="evenodd"/>
        <path id="Trazado_983362" data-name="Trazado 983362" d="M161.23,50.894H82.445V74.753c7.79,1.851,7.207,14.706-1.948,14.706-9.057,0-9.739-12.855-1.948-14.706V50.894H24.012V66.087c7.791,1.849,7.109,14.706-1.948,14.706-9.153,0-9.738-12.856-1.947-14.706V50.894H2.879v50.544H30.05a6.889,6.889,0,0,1,7.109-5.455c9.739,0,9.739,14.9,0,14.9a6.875,6.875,0,0,1-7.109-5.551H2.879v20.549h47.33v-52C42.418,72.027,43,59.27,52.157,59.27c9.057,0,9.739,12.758,1.948,14.608v52h15V110.689c-7.791-1.851-7.109-14.608,1.947-14.608S80.789,108.839,73,110.689v15.193H96.177V100.27c-7.791-1.851-7.207-14.608,1.947-14.608,9.057,0,9.739,12.758,1.948,14.608v6.33h30.385a6.872,6.872,0,0,1,7.108-5.551c9.739,0,9.739,14.9,0,14.9a6.885,6.885,0,0,1-7.108-5.453H100.071v15.387H161.23V84.1H123.445a6.875,6.875,0,0,1-7.109,5.551c-9.739,0-9.739-14.9,0-14.9a6.889,6.889,0,0,1,7.109,5.455H161.23V68.131H145.356A6.8,6.8,0,0,1,138.441,73c-9.738,0-9.738-14.8,0-14.8a6.909,6.909,0,0,1,7.207,6.038H161.23Z" transform="translate(1.016 17.959)" fill="#b9cfc3" fill-rule="evenodd"/>
        <path id="Trazado_983363" data-name="Trazado 983363" d="M148.81,109.2H10.228c0,1.461-.39,4.09,1.948,4.09H146.765c2.338,0,2.046-2.629,2.046-4.09" transform="translate(3.601 38.534)" fill="#7d8797" fill-rule="evenodd"/>
        <rect id="Rectángulo_408047" data-name="Rectángulo 408047" width="22.399" height="2.63" transform="translate(119.591 155.721)" fill="#c1d5e6"/>
        <rect id="Rectángulo_408048" data-name="Rectángulo 408048" width="22.302" height="2.63" transform="translate(24.249 155.721)" fill="#c1d5e6"/>
        <path id="Trazado_983364" data-name="Trazado 983364" d="M29.132,94.212c4.674,0,4.674-7.109,0-7.109s-4.674,7.109,0,7.109" transform="translate(9.043 30.736)" fill="#71a3ac" fill-rule="evenodd"/>
        <path id="Trazado_983365" data-name="Trazado 983365" d="M17.975,71.968c4.674,0,4.674-7.109,0-7.109s-4.674,7.109,0,7.109" transform="translate(5.106 22.886)" fill="#71a3ac" fill-rule="evenodd"/>
        <path id="Trazado_983366" data-name="Trazado 983366" d="M40.218,59.964c-4.674,0-4.674,7.012,0,7.012s4.674-7.012,0-7.012" transform="translate(12.955 21.159)" fill="#71a3ac" fill-rule="evenodd"/>
        <path id="Trazado_983367" data-name="Trazado 983367" d="M54.183,87.175c-4.674,0-4.674,7.012,0,7.012s4.674-7.012,0-7.012" transform="translate(17.882 30.761)" fill="#71a3ac" fill-rule="evenodd"/>
        <path id="Trazado_983368" data-name="Trazado 983368" d="M61.166,71.266c-4.674,0-4.674,7.109,0,7.109s4.674-7.109,0-7.109" transform="translate(20.346 25.147)" fill="#71a3ac" fill-rule="evenodd"/>
        <path id="Trazado_983369" data-name="Trazado 983369" d="M74.2,79.472c-4.674,0-4.674,7.109,0,7.109s4.674-7.109,0-7.109" transform="translate(24.944 28.043)" fill="#71a3ac" fill-rule="evenodd"/>
        <path id="Trazado_983370" data-name="Trazado 983370" d="M87.657,71.41c-4.674,0-4.674,7.109,0,7.109s4.674-7.109,0-7.109" transform="translate(29.694 25.198)" fill="#71a3ac" fill-rule="evenodd"/>
        <path id="Trazado_983371" data-name="Trazado 983371" d="M104,59.172c-4.674,0-4.674,7.012,0,7.012s4.674-7.012,0-7.012" transform="translate(35.46 20.88)" fill="#71a3ac" fill-rule="evenodd"/>
        <path id="Trazado_983372" data-name="Trazado 983372" d="M103.35,97.955c4.674,0,4.674-7.109,0-7.109s-4.674,7.109,0,7.109" transform="translate(35.232 32.056)" fill="#71a3ac" fill-rule="evenodd"/>
      </g>
    </g>
  </g>
</svg>
