<svg xmlns="http://www.w3.org/2000/svg" width="89.273" height="75.511" viewBox="0 0 89.273 75.511">
  <g id="Grupo_1115942" data-name="Grupo 1115942" transform="translate(9473.551 8284.756)">
    <path id="Trazado_983568" data-name="Trazado 983568" d="M2.953-1.9l5.531.016L8.156,0H-.266l.258-1.492L6.8-9.461,1.383-9.477l.336-1.9h8.289L9.75-9.914Zm18.484-3.93H14.648l.328-1.844h6.789Zm-.586,3.383H14.063l.328-1.844H21.18Z" transform="translate(-9447.051 -8244.5)" fill="#12263f"/>
    <path id="Trazado_983567" data-name="Trazado 983567" d="M4.734-2.844l3.828-8.531h2.625L5.57,0H3.18L1.133-11.375H3.594Z" transform="translate(-9404.051 -8254.5)" fill="#12263f"/>
    <path id="Trazado_983373" data-name="Trazado 983373" d="M-8574.552-8385.5h28.325" transform="translate(-838.051 135.5)" fill="none" stroke="#000" stroke-width="1"/>
    <path id="Trazado_983569" data-name="Trazado 983569" d="M2.6,0H.313L2.281-11.375H4.57Z" transform="translate(-9401.051 -8233.5)" fill="#12263f"/>
    <path id="Trazado_983374" data-name="Trazado 983374" d="M-8643.051-8414v75.511" transform="translate(-830 129.244)" fill="none" stroke="#000" stroke-width="1"/>
  </g>
</svg>
