<svg xmlns="http://www.w3.org/2000/svg" width="400" height="263.698" viewBox="0 0 400 263.698">
  <g id="Grupo_1115863" data-name="Grupo 1115863" transform="translate(608 -4374.445)">
    <g id="Grupo_1115740" data-name="Grupo 1115740" transform="translate(-1208 526)">
      <path id="Trazado_983396" data-name="Trazado 983396" d="M-8338.051-7760.523s-92.785-13.055-95,53.793,0,131.715,0,131.715,4.846,33.94-61.746,35.98" transform="translate(9138.051 11612)" fill="none" stroke="#ff2424" stroke-width="4"/>
      <path id="Trazado_983397" data-name="Trazado 983397" d="M-8494.8-7760.523s92.785-13.055,95,53.793,0,131.715,0,131.715-4.846,33.94,61.746,35.98" transform="translate(9294.797 11612)" fill="none" stroke="#ff2424" stroke-width="4"/>
      <path id="Trazado_983567" data-name="Trazado 983567" d="M4.1-4.242H.289v-1.18H4.1Zm7.32-2.148h1.086a2.387,2.387,0,0,0,1.609-.539A1.8,1.8,0,0,0,14.7-8.344a1.764,1.764,0,0,0-1.992-2,2.072,2.072,0,0,0-1.5.535,1.873,1.873,0,0,0-.559,1.418H9.211a2.9,2.9,0,0,1,.988-2.246,3.6,3.6,0,0,1,2.512-.895,3.558,3.558,0,0,1,2.523.852,3.076,3.076,0,0,1,.914,2.367,2.5,2.5,0,0,1-.48,1.438,2.9,2.9,0,0,1-1.309,1.039,2.8,2.8,0,0,1,1.449.984,2.734,2.734,0,0,1,.512,1.68,3.1,3.1,0,0,1-1,2.43,3.745,3.745,0,0,1-2.6.9,3.844,3.844,0,0,1-2.605-.867A2.877,2.877,0,0,1,9.109-3h1.453a1.859,1.859,0,0,0,.586,1.438,2.229,2.229,0,0,0,1.57.539,2.187,2.187,0,0,0,1.6-.547,2.108,2.108,0,0,0,.555-1.57,1.912,1.912,0,0,0-.609-1.523,2.655,2.655,0,0,0-1.758-.547H11.422ZM18.1-4.3a4.952,4.952,0,0,1,.922-3.129,2.915,2.915,0,0,1,2.414-1.184,2.932,2.932,0,0,1,2.352,1.016V-12h1.445V0H23.906l-.07-.906A2.943,2.943,0,0,1,21.422.156a2.887,2.887,0,0,1-2.395-1.2A5.008,5.008,0,0,1,18.1-4.187Zm1.445.164a3.749,3.749,0,0,0,.594,2.25,1.92,1.92,0,0,0,1.641.813A2.108,2.108,0,0,0,23.789-2.3V-6.187a2.125,2.125,0,0,0-1.992-1.2,1.929,1.929,0,0,0-1.656.82A4.128,4.128,0,0,0,19.547-4.133ZM27.7,0V-11.375h3.719a4.317,4.317,0,0,1,2.785.766,2.759,2.759,0,0,1,.934,2.266,2.31,2.31,0,0,1-.453,1.41,2.937,2.937,0,0,1-1.234.949A2.638,2.638,0,0,1,34.91-5a2.814,2.814,0,0,1,.535,1.723,3.042,3.042,0,0,1-.992,2.406,4.1,4.1,0,0,1-2.8.875Zm1.5-5.32v4.094H31.68a2.385,2.385,0,0,0,1.652-.543,1.907,1.907,0,0,0,.605-1.5q0-2.055-2.234-2.055Zm0-1.2h2.266a2.375,2.375,0,0,0,1.574-.493,1.654,1.654,0,0,0,.59-1.339,1.626,1.626,0,0,0-.547-1.366,2.686,2.686,0,0,0-1.664-.427H29.2Z" transform="translate(964.051 3909)" fill="#12263f"/>
      <path id="Trazado_983398" data-name="Trazado 983398" d="M-8538.051-7760.523h147.23" transform="translate(9266.193 11778)" fill="none" stroke="#000" stroke-width="3"/>
      <g id="Grupo_1115738" data-name="Grupo 1115738" transform="translate(0 8)">
        <path id="Trazado_983390" data-name="Trazado 983390" d="M-8538.051-7760.523h400" transform="translate(9138.051 11604)" fill="none" stroke="#000" stroke-width="3"/>
        <path id="Trazado_983391" data-name="Trazado 983391" d="M-8538.051-7760.523h295" transform="translate(9190.551 11657)" fill="none" stroke="#000" stroke-width="3"/>
        <path id="Trazado_983392" data-name="Trazado 983392" d="M-8538.051-7760.523h400" transform="translate(9138.051 11826)" fill="none" stroke="#000" stroke-width="3"/>
        <path id="Trazado_983393" data-name="Trazado 983393" d="M-8538.051-7760.523h222" transform="translate(-7055.523 12381.527) rotate(90)" fill="none" stroke="#000" stroke-width="3" stroke-dasharray="6"/>
        <path id="Trazado_983394" data-name="Trazado 983394" d="M-8538.051-7760.523h222" transform="translate(-6960.523 12381.527) rotate(90)" fill="none" stroke="#000" stroke-width="3" stroke-dasharray="6"/>
        <path id="Trazado_983395" data-name="Trazado 983395" d="M-8538.051-7760.523h222" transform="translate(-6865.523 12381.527) rotate(90)" fill="none" stroke="#000" stroke-width="3" stroke-dasharray="6"/>
      </g>
      <circle id="Elipse_11622" data-name="Elipse 11622" cx="6.5" cy="6.5" r="6.5" transform="translate(722.051 4011)"/>
      <circle id="Elipse_11623" data-name="Elipse 11623" cx="6.5" cy="6.5" r="6.5" transform="translate(869.051 4011)"/>
      <path id="Trazado_983568" data-name="Trazado 983568" d="M1.32,0V-11.375H5.039a4.317,4.317,0,0,1,2.785.766,2.759,2.759,0,0,1,.934,2.266A2.31,2.31,0,0,1,8.3-6.934a2.938,2.938,0,0,1-1.234.949A2.638,2.638,0,0,1,8.527-5a2.814,2.814,0,0,1,.535,1.723A3.042,3.042,0,0,1,8.07-.875,4.1,4.1,0,0,1,5.266,0Zm1.5-5.32v4.094H5.3A2.385,2.385,0,0,0,6.949-1.77a1.907,1.907,0,0,0,.605-1.5q0-2.055-2.234-2.055Zm0-1.2H5.086A2.375,2.375,0,0,0,6.66-7.017a1.654,1.654,0,0,0,.59-1.339A1.626,1.626,0,0,0,6.7-9.722a2.686,2.686,0,0,0-1.664-.427H2.82ZM16.273,0a3.036,3.036,0,0,1-.2-.891A3.225,3.225,0,0,1,13.664.156a2.984,2.984,0,0,1-2.051-.707,2.287,2.287,0,0,1-.8-1.793,2.39,2.39,0,0,1,1-2.051,4.733,4.733,0,0,1,2.824-.73h1.406v-.664A1.623,1.623,0,0,0,15.594-7a1.821,1.821,0,0,0-1.336-.449,2.107,2.107,0,0,0-1.3.391,1.151,1.151,0,0,0-.523.945H10.984a2,2,0,0,1,.449-1.223,3.066,3.066,0,0,1,1.219-.934,4.1,4.1,0,0,1,1.691-.344,3.342,3.342,0,0,1,2.289.73,2.635,2.635,0,0,1,.859,2.012v3.891a4.757,4.757,0,0,0,.3,1.852V0Zm-2.4-1.1a2.54,2.54,0,0,0,1.289-.352,2.127,2.127,0,0,0,.883-.914V-4.1H14.914q-2.656,0-2.656,1.555a1.316,1.316,0,0,0,.453,1.063A1.742,1.742,0,0,0,13.875-1.1Zm7.25-7.352.047,1.063A3.08,3.08,0,0,1,23.7-8.609q2.68,0,2.7,3.023V0H24.961V-5.594a1.946,1.946,0,0,0-.418-1.352,1.675,1.675,0,0,0-1.277-.437,2.086,2.086,0,0,0-1.234.375,2.546,2.546,0,0,0-.828.984V0H19.758V-8.453ZM28.234-4.3a4.952,4.952,0,0,1,.922-3.129A2.915,2.915,0,0,1,31.57-8.609a2.932,2.932,0,0,1,2.352,1.016V-12h1.445V0H34.039l-.07-.906A2.943,2.943,0,0,1,31.555.156a2.887,2.887,0,0,1-2.395-1.2,5.008,5.008,0,0,1-.926-3.141Zm1.445.164a3.749,3.749,0,0,0,.594,2.25,1.92,1.92,0,0,0,1.641.813A2.108,2.108,0,0,0,33.922-2.3V-6.187a2.125,2.125,0,0,0-1.992-1.2,1.929,1.929,0,0,0-1.656.82A4.128,4.128,0,0,0,29.68-4.133ZM40.4-1.961l2.094-6.492h1.477L40.938,0h-1.1L36.773-8.453H38.25ZM49.961,0H48.508V-9.633l-2.914,1.07V-9.875l4.141-1.555h.227Zm4.031-4.3a4.952,4.952,0,0,1,.922-3.129,2.915,2.915,0,0,1,2.414-1.184A2.932,2.932,0,0,1,59.68-7.594V-12h1.445V0H59.8l-.07-.906A2.943,2.943,0,0,1,57.313.156a2.887,2.887,0,0,1-2.395-1.2,5.008,5.008,0,0,1-.926-3.141Zm1.445.164a3.749,3.749,0,0,0,.594,2.25,1.92,1.92,0,0,0,1.641.813A2.108,2.108,0,0,0,59.68-2.3V-6.187a2.125,2.125,0,0,0-1.992-1.2,1.929,1.929,0,0,0-1.656.82A4.128,4.128,0,0,0,55.438-4.133ZM65.328-10.5v2.047h1.578v1.117H65.328v5.249a1.173,1.173,0,0,0,.211.763.888.888,0,0,0,.719.254,3.5,3.5,0,0,0,.688-.094V0a4.215,4.215,0,0,1-1.109.155A1.8,1.8,0,0,1,64.375-.43a2.517,2.517,0,0,1-.492-1.664V-7.336H62.344V-8.453h1.539V-10.5Zm4.711,3.07a3.073,3.073,0,0,1,2.5-1.18q2.68,0,2.7,3.023V0H73.8V-5.594a1.946,1.946,0,0,0-.418-1.352A1.675,1.675,0,0,0,72.1-7.383a2.086,2.086,0,0,0-1.234.375,2.546,2.546,0,0,0-.828.984V0H68.594V-12h1.445Z" transform="translate(810.051 4004)"/>
      <path id="Trazado_983569" data-name="Trazado 983569" d="M11.865-7.849H4.407V0H2.063V-17.773H13.074v1.917H4.407v6.091h7.458ZM19.009,8H17.685V-.779L15.029.2V-1L18.8-2.417h.206Z" transform="translate(695.051 4104)" fill="#12263f"/>
      <path id="Trazado_983570" data-name="Trazado 983570" d="M11.865-7.849H4.407V0H2.063V-17.773H13.074v1.917H4.407v6.091h7.458Zm6.04,14.916a1.9,1.9,0,0,0,1.232-.427,1.5,1.5,0,0,0,.584-1.068h1.246a2.389,2.389,0,0,1-.456,1.26,3,3,0,0,1-1.121.954,3.236,3.236,0,0,1-1.485.356,3.174,3.174,0,0,1-2.5-1.05,4.183,4.183,0,0,1-.929-2.873V4a4.638,4.638,0,0,1,.413-2A3.145,3.145,0,0,1,16.072.638,3.368,3.368,0,0,1,17.9.153a3.09,3.09,0,0,1,2.154.776,2.774,2.774,0,0,1,.915,2.015H19.721a1.815,1.815,0,0,0-.566-1.228A1.761,1.761,0,0,0,17.9,1.236a1.844,1.844,0,0,0-1.556.723,3.394,3.394,0,0,0-.552,2.09V4.3a3.326,3.326,0,0,0,.548,2.051A1.853,1.853,0,0,0,17.905,7.067Z" transform="translate(790.051 4104)" fill="#12263f"/>
      <path id="Trazado_983571" data-name="Trazado 983571" d="M11.865-7.849H4.407V0H2.063V-17.773H13.074v1.917H4.407v6.091h7.458Zm6.04,14.916a1.9,1.9,0,0,0,1.232-.427,1.5,1.5,0,0,0,.584-1.068h1.246a2.389,2.389,0,0,1-.456,1.26,3,3,0,0,1-1.121.954,3.236,3.236,0,0,1-1.485.356,3.174,3.174,0,0,1-2.5-1.05,4.183,4.183,0,0,1-.929-2.873V4a4.638,4.638,0,0,1,.413-2A3.145,3.145,0,0,1,16.072.638,3.368,3.368,0,0,1,17.9.153a3.09,3.09,0,0,1,2.154.776,2.774,2.774,0,0,1,.915,2.015H19.721a1.815,1.815,0,0,0-.566-1.228A1.761,1.761,0,0,0,17.9,1.236a1.844,1.844,0,0,0-1.556.723,3.394,3.394,0,0,0-.552,2.09V4.3a3.326,3.326,0,0,0,.548,2.051A1.853,1.853,0,0,0,17.905,7.067Z" transform="translate(882.051 4104)" fill="#12263f"/>
    </g>
  </g>
</svg>
