<svg xmlns="http://www.w3.org/2000/svg" xmlns:xlink="http://www.w3.org/1999/xlink" width="400" height="176" viewBox="0 0 400 176">
  <defs>
    <clipPath id="clip-path">
      <rect id="Rect치ngulo_408069" data-name="Rect치ngulo 408069" width="288.68" height="136.155" transform="translate(0 0)" fill="none" stroke="red" stroke-width="2"/>
    </clipPath>
  </defs>
  <g id="Grupo_1115866" data-name="Grupo 1115866" transform="translate(-1020 -365)">
    <rect id="Rect치ngulo_408070" data-name="Rect치ngulo 408070" width="400" height="176" rx="12" transform="translate(1020 365)" fill="#fef0f0"/>
    <g id="Grupo_1115751" data-name="Grupo 1115751" transform="translate(1075.738 384.791)">
      <g id="Grupo_1115750" data-name="Grupo 1115750" transform="translate(0 0)" clip-path="url(#clip-path)">
        <path id="Trazado_983404" data-name="Trazado 983404" d="M234.053,136.157a5.275,5.275,0,0,1-3.732-1.746,15.977,15.977,0,0,1-2.954-4.495c-1.677-3.521-3.233-8.563-4.755-15.413-2.811-12.647-5.094-29.764-7.3-46.317-2.2-16.519-4.481-33.6-7.277-46.18-1.5-6.73-3.012-11.659-4.637-15.069-1.682-3.531-3.441-5.321-5.229-5.321s-3.547,1.79-5.229,5.321c-1.624,3.41-3.141,8.339-4.637,15.069-2.8,12.579-5.074,29.661-7.277,46.18-2.207,16.553-4.49,33.67-7.3,46.317-1.523,6.85-3.078,11.892-4.755,15.413a15.977,15.977,0,0,1-2.954,4.495,4.861,4.861,0,0,1-7.464,0,15.977,15.977,0,0,1-2.954-4.495c-1.677-3.521-3.233-8.563-4.755-15.413-2.811-12.647-5.094-29.764-7.3-46.317-2.2-16.519-4.481-33.6-7.277-46.18-1.5-6.73-3.013-11.659-4.637-15.069-1.682-3.531-3.441-5.321-5.229-5.321s-3.548,1.79-5.229,5.321c-1.624,3.41-3.141,8.339-4.637,15.069-2.8,12.579-5.074,29.661-7.277,46.18-2.207,16.553-4.49,33.67-7.3,46.317-1.523,6.85-3.078,11.892-4.755,15.413a15.978,15.978,0,0,1-2.954,4.495,4.861,4.861,0,0,1-7.464,0,15.979,15.979,0,0,1-2.954-4.495c-1.677-3.521-3.232-8.563-4.755-15.413-2.811-12.647-5.094-29.764-7.3-46.317-2.2-16.519-4.481-33.6-7.277-46.18-1.5-6.73-3.013-11.659-4.637-15.069-1.682-3.531-3.441-5.321-5.229-5.321S51.08,3.406,49.4,6.937c-1.624,3.41-3.141,8.339-4.637,15.069-2.8,12.579-5.074,29.661-7.277,46.18-2.208,16.553-4.49,33.67-7.3,46.317-1.523,6.85-3.078,11.892-4.755,15.413a15.978,15.978,0,0,1-2.954,4.495,5.276,5.276,0,0,1-3.732,1.746,5.276,5.276,0,0,1-3.732-1.746,15.976,15.976,0,0,1-2.954-4.495C10.379,126.4,8.824,121.354,7.3,114.5,4.49,101.856,2.208,84.739,0,68.186l1.6-.213c2.2,16.519,4.481,33.6,7.277,46.18,1.5,6.73,3.013,11.659,4.637,15.069,1.682,3.531,3.441,5.321,5.229,5.321s3.548-1.79,5.229-5.321c1.624-3.41,3.141-8.339,4.637-15.069,2.8-12.579,5.074-29.661,7.277-46.18,2.208-16.553,4.49-33.67,7.3-46.317,1.523-6.85,3.078-11.892,4.755-15.413A15.979,15.979,0,0,1,50.9,1.748a4.861,4.861,0,0,1,7.464,0,15.978,15.978,0,0,1,2.954,4.495c1.677,3.521,3.233,8.563,4.755,15.413,2.811,12.647,5.094,29.764,7.3,46.317,2.2,16.519,4.481,33.6,7.277,46.18,1.5,6.73,3.013,11.659,4.637,15.069,1.682,3.531,3.441,5.321,5.229,5.321s3.548-1.79,5.229-5.321c1.624-3.41,3.141-8.339,4.637-15.069,2.8-12.579,5.074-29.661,7.277-46.18,2.208-16.553,4.49-33.67,7.3-46.317,1.523-6.85,3.078-11.892,4.755-15.413a15.976,15.976,0,0,1,2.954-4.495,4.861,4.861,0,0,1,7.464,0,15.978,15.978,0,0,1,2.954,4.495c1.677,3.521,3.232,8.563,4.755,15.413,2.811,12.647,5.094,29.764,7.3,46.317,2.2,16.519,4.481,33.6,7.277,46.18,1.5,6.73,3.013,11.659,4.637,15.069,1.682,3.531,3.441,5.321,5.229,5.321s3.548-1.79,5.229-5.321c1.624-3.41,3.141-8.339,4.637-15.069,2.8-12.579,5.074-29.661,7.277-46.18,2.208-16.553,4.49-33.67,7.3-46.317,1.523-6.85,3.078-11.892,4.755-15.413a15.977,15.977,0,0,1,2.954-4.495,4.861,4.861,0,0,1,7.464,0,15.979,15.979,0,0,1,2.954,4.495c1.677,3.521,3.232,8.563,4.755,15.413,2.811,12.647,5.094,29.764,7.3,46.317,2.2,16.519,4.481,33.6,7.277,46.18,1.5,6.73,3.013,11.659,4.637,15.069,1.682,3.531,3.441,5.321,5.229,5.321s3.547-1.79,5.229-5.321c1.624-3.41,3.141-8.339,4.637-15.069,2.8-12.579,5.074-29.661,7.277-46.18,2.207-16.553,4.49-33.67,7.3-46.317,1.522-6.85,3.078-11.892,4.755-15.413a15.977,15.977,0,0,1,2.954-4.495,4.861,4.861,0,0,1,7.464,0,15.977,15.977,0,0,1,2.954,4.495c1.677,3.521,3.232,8.563,4.755,15.413,2.811,12.647,5.094,29.764,7.3,46.317l-1.6.213c-2.2-16.519-4.481-33.6-7.277-46.18-1.5-6.73-3.012-11.659-4.637-15.069-1.682-3.531-3.441-5.321-5.229-5.321s-3.547,1.79-5.229,5.321c-1.624,3.41-3.141,8.339-4.637,15.069-2.8,12.579-5.074,29.661-7.277,46.18-2.207,16.553-4.49,33.67-7.3,46.317-1.523,6.85-3.078,11.892-4.755,15.413a15.976,15.976,0,0,1-2.954,4.495,5.276,5.276,0,0,1-3.732,1.746" transform="translate(0 -0.002)" fill="red" stroke="red" stroke-width="2"/>
      </g>
    </g>
  </g>
</svg>
