<svg xmlns="http://www.w3.org/2000/svg" width="93.447" height="93.447" viewBox="0 0 93.447 93.447">
  <g id="Grupo_1105680" data-name="Grupo 1105680" transform="translate(0.001)">
    <ellipse id="Elipse_11501" data-name="Elipse 11501" cx="46.724" cy="46.724" rx="46.724" ry="46.724" transform="translate(-0.001 0)" fill="#bfae88"/>
    <g id="ondas-de-radio" transform="translate(11.632 -25.252)">
      <g id="Grupo_1099473" data-name="Grupo 1099473" transform="translate(0 44)">
        <path id="Trazado_873724" data-name="Trazado 873724" d="M67.371,70.834H52.448C51.555,57.68,51.188,44,45.5,44c-3.295,0-4.509,5-5.2,9.349-.763,4.813-1.149,11.2-1.5,17.485H29.712c-.2-3.543-.412-7.153-.692-10.437a1.142,1.142,0,0,0-2.276.194c.274,3.213.483,6.758.68,10.243h-9.07c.4-5.87.789-13.31,1.707-18.284,1.044-5.656,2.409-6.267,2.948-6.267.459,0,2.041.64,3.155,8.87a1.142,1.142,0,1,0,2.263-.306C27.7,49.484,26.49,44,23.009,44c-3.31,0-4.549,4.643-5.194,8.136-.933,5.058-1.3,12.073-1.75,18.7H1.142a1.142,1.142,0,0,0,0,2.284H15.9a105.238,105.238,0,0,1-1.195,10.7c-1.044,5.656-2.409,6.267-2.948,6.267-1.052,0-1.823-1.938-2.189-3.094A47.994,47.994,0,0,1,8,77.661a1.142,1.142,0,0,0-2.273.221,49.986,49.986,0,0,0,1.671,9.8c.367,1.16,1.484,4.688,4.366,4.688,3.31,0,4.549-4.643,5.194-8.136a108.439,108.439,0,0,0,1.239-11.118h9.359c.848,15,1.622,26.834,6.7,26.834,3.295,0,4.509-5,5.2-9.349,1.6-10.1,1.528-26.943,3.105-36.9,1.092-6.887,2.529-7.422,2.944-7.422.539,0,1.9.611,2.948,6.267.918,4.975,1.3,12.244,1.707,18.284H46.573a1.142,1.142,0,1,0,0,2.284h3.746a108.4,108.4,0,0,0,1.239,11.118c.645,3.493,1.884,8.136,5.194,8.136,3.045,0,4.258-3.835,4.906-6.72a92.8,92.8,0,0,0,1.527-12.534h4.187a1.142,1.142,0,1,0,0-2.284ZM34.257,97.669c-.415,0-1.852-.535-2.943-7.423-.74-4.67-1.122-10.943-1.472-17.128h8.831c-.35,6.185-.732,12.457-1.472,17.128C36.108,97.133,34.671,97.669,34.257,97.669ZM59.429,85.151c-1.57,6.993-4.169,6.561-5.625-1.33a105.2,105.2,0,0,1-1.195-10.7h8.286a89.816,89.816,0,0,1-1.465,12.033Z" transform="translate(0 -44)" fill="#fff"/>
      </g>
    </g>
  </g>
</svg>
