<svg xmlns="http://www.w3.org/2000/svg" width="85" height="85" viewBox="0 0 85 85">
  <g id="Grupo_1115942" data-name="Grupo 1115942" transform="translate(-200 -542)">
    <g id="Grupo_1112950" data-name="Grupo 1112950">
      <rect id="Rectángulo_406341" data-name="Rectángulo 406341" width="85" height="85" transform="translate(200 542)" fill="#fcf3cc"/>
    </g>
    <g id="Grupo_1115721" data-name="Grupo 1115721" transform="translate(203 548.596)">
      <path id="Trazado_983301" data-name="Trazado 983301" d="M65.938,331.095v2.815h2.215v-5.631H65.938Z" transform="translate(-59.291 -295.19)" fill="#fc7777"/>
      <path id="Trazado_983302" data-name="Trazado 983302" d="M98.907,294.553v6.912h2.215V287.641H98.907Z" transform="translate(-88.938 -258.648)" fill="#fc7777"/>
      <path id="Trazado_983303" data-name="Trazado 983303" d="M131.875,181.871v19.543h2.215V162.328h-2.215Z" transform="translate(-118.583 -145.966)" fill="#fc7777"/>
      <path id="Trazado_983304" data-name="Trazado 983304" d="M0,346.9v1.877H2.215V346.9Z" transform="translate(0 -311.934)" fill="#fc7777"/>
      <path id="Trazado_983305" data-name="Trazado 983305" d="M32.97,336.85v2.171h2.215v-4.341H32.97Z" transform="translate(-29.646 -300.945)" fill="#fc7777"/>
      <path id="Trazado_983306" data-name="Trazado 983306" d="M164.845,81.6v30.783h2.215V50.814h-2.215Z" transform="translate(-148.229 -45.692)" fill="#fc7777"/>
      <path id="Trazado_983307" data-name="Trazado 983307" d="M197.813,218.905V234.3h2.216V203.514h-2.216Z" transform="translate(-177.874 -183)" fill="#fc7777"/>
      <path id="Trazado_983308" data-name="Trazado 983308" d="M230.782,323.363v3.682H233v-7.365h-2.215Z" transform="translate(-207.521 -287.458)" fill="#fc7777"/>
      <path id="Trazado_983309" data-name="Trazado 983309" d="M263.752,194.9v18.082h2.215V176.819h-2.215Z" transform="translate(-237.167 -158.996)" fill="#fc7777"/>
      <path id="Trazado_983310" data-name="Trazado 983310" d="M296.72,99.252v28.8h2.215V70.448H296.72Z" transform="translate(-266.812 -63.347)" fill="#fc7777"/>
      <path id="Trazado_983311" data-name="Trazado 983311" d="M329.69,0V71.809h2.215V0Z" transform="translate(-296.459)" fill="#fc7777"/>
      <path id="Trazado_983312" data-name="Trazado 983312" d="M362.659,254.49v11.4h2.215v-22.8h-2.215Z" transform="translate(-326.105 -218.586)" fill="#fc7777"/>
      <path id="Trazado_983313" data-name="Trazado 983313" d="M395.627,305.351v5.7h2.215v-11.4h-2.215Z" transform="translate(-355.75 -269.446)" fill="#fc7777"/>
      <path id="Trazado_983314" data-name="Trazado 983314" d="M428.6,343.249V344.7h2.215V341.8H428.6Z" transform="translate(-385.396 -307.344)" fill="#fc7777"/>
      <path id="Trazado_983315" data-name="Trazado 983315" d="M461.565,254.49v11.4h2.215v-22.8h-2.215Z" transform="translate(-415.041 -218.586)" fill="#fc7777"/>
      <path id="Trazado_983316" data-name="Trazado 983316" d="M494.534,188.407v18.81h2.215V169.6h-2.215Z" transform="translate(-444.688 -152.502)" fill="#fc7777"/>
      <path id="Trazado_983317" data-name="Trazado 983317" d="M527.5,99.252v28.8h2.216V70.448H527.5Z" transform="translate(-474.333 -63.347)" fill="#fc7777"/>
      <path id="Trazado_983318" data-name="Trazado 983318" d="M560.472,203.514V234.3h2.215V203.514Z" transform="translate(-503.979 -183)" fill="#fc7777"/>
      <path id="Trazado_983319" data-name="Trazado 983319" d="M598.429,294.553v6.912h2.216V287.641h-2.216Z" transform="translate(-538.11 -258.648)" fill="#fc7777"/>
      <path id="Trazado_983320" data-name="Trazado 983320" d="M631.4,311.349v9.044h2.215v-9.044Z" transform="translate(-567.757 -279.966)" fill="#fc7777"/>
      <path id="Trazado_983321" data-name="Trazado 983321" d="M669.355,330.855V333.7h2.215v-5.685h-2.215Z" transform="translate(-601.888 -294.951)" fill="#fc7777"/>
      <path id="Trazado_983322" data-name="Trazado 983322" d="M702.325,334.679v4.341h2.215v-4.341Z" transform="translate(-631.534 -300.945)" fill="#fc7777"/>
      <path id="Trazado_983323" data-name="Trazado 983323" d="M740.282,346.9v1.877H742.5V346.9Z" transform="translate(-665.666 -311.934)" fill="#fc7777"/>
    </g>
  </g>
</svg>
