<svg xmlns="http://www.w3.org/2000/svg" width="400" height="263.698" viewBox="0 0 400 263.698">
  <g id="Grupo_1115863" data-name="Grupo 1115863" transform="translate(-600 -3848.445)">
    <g id="Grupo_1115740" data-name="Grupo 1115740">
      <path id="Trazado_983396" data-name="Trazado 983396" d="M-8338.051-7760.523s-92.785-13.055-95,53.793,0,131.715,0,131.715,4.846,33.94-61.746,35.98" transform="translate(9138.051 11612)" fill="none" stroke="#ff2424" stroke-width="4"/>
      <path id="Trazado_983397" data-name="Trazado 983397" d="M-8494.8-7760.523s92.785-13.055,95,53.793,0,131.715,0,131.715-4.846,33.94,61.746,35.98" transform="translate(9294.797 11612)" fill="none" stroke="#ff2424" stroke-width="4"/>
      <path id="Trazado_983578" data-name="Trazado 983578" d="M4.1-4.242H.289v-1.18H4.1Zm7.32-2.148h1.086a2.387,2.387,0,0,0,1.609-.539A1.8,1.8,0,0,0,14.7-8.344a1.764,1.764,0,0,0-1.992-2,2.072,2.072,0,0,0-1.5.535,1.873,1.873,0,0,0-.559,1.418H9.211a2.9,2.9,0,0,1,.988-2.246,3.6,3.6,0,0,1,2.512-.895,3.558,3.558,0,0,1,2.523.852,3.076,3.076,0,0,1,.914,2.367,2.5,2.5,0,0,1-.48,1.438,2.9,2.9,0,0,1-1.309,1.039,2.8,2.8,0,0,1,1.449.984,2.734,2.734,0,0,1,.512,1.68,3.1,3.1,0,0,1-1,2.43,3.745,3.745,0,0,1-2.6.9,3.844,3.844,0,0,1-2.605-.867A2.877,2.877,0,0,1,9.109-3h1.453a1.859,1.859,0,0,0,.586,1.438,2.229,2.229,0,0,0,1.57.539,2.187,2.187,0,0,0,1.6-.547,2.108,2.108,0,0,0,.555-1.57,1.912,1.912,0,0,0-.609-1.523,2.655,2.655,0,0,0-1.758-.547H11.422ZM18.1-4.3a4.952,4.952,0,0,1,.922-3.129,2.915,2.915,0,0,1,2.414-1.184,2.932,2.932,0,0,1,2.352,1.016V-12h1.445V0H23.906l-.07-.906A2.943,2.943,0,0,1,21.422.156a2.887,2.887,0,0,1-2.395-1.2A5.008,5.008,0,0,1,18.1-4.187Zm1.445.164a3.749,3.749,0,0,0,.594,2.25,1.92,1.92,0,0,0,1.641.813A2.108,2.108,0,0,0,23.789-2.3V-6.187a2.125,2.125,0,0,0-1.992-1.2,1.929,1.929,0,0,0-1.656.82A4.128,4.128,0,0,0,19.547-4.133ZM27.7,0V-11.375h3.719a4.317,4.317,0,0,1,2.785.766,2.759,2.759,0,0,1,.934,2.266,2.31,2.31,0,0,1-.453,1.41,2.937,2.937,0,0,1-1.234.949A2.638,2.638,0,0,1,34.91-5a2.814,2.814,0,0,1,.535,1.723,3.042,3.042,0,0,1-.992,2.406,4.1,4.1,0,0,1-2.8.875Zm1.5-5.32v4.094H31.68a2.385,2.385,0,0,0,1.652-.543,1.907,1.907,0,0,0,.605-1.5q0-2.055-2.234-2.055Zm0-1.2h2.266a2.375,2.375,0,0,0,1.574-.493,1.654,1.654,0,0,0,.59-1.339,1.626,1.626,0,0,0-.547-1.366,2.686,2.686,0,0,0-1.664-.427H29.2Z" transform="translate(964.051 3909)" fill="#12263f"/>
      <path id="Trazado_983398" data-name="Trazado 983398" d="M-8538.051-7760.523h147.23" transform="translate(9266.193 11778)" fill="none" stroke="#000" stroke-width="3"/>
      <g id="Grupo_1115738" data-name="Grupo 1115738" transform="translate(0 8)">
        <path id="Trazado_983390" data-name="Trazado 983390" d="M-8538.051-7760.523h400" transform="translate(9138.051 11604)" fill="none" stroke="#000" stroke-width="3"/>
        <path id="Trazado_983391" data-name="Trazado 983391" d="M-8538.051-7760.523h295" transform="translate(9190.551 11657)" fill="none" stroke="#000" stroke-width="3"/>
        <path id="Trazado_983392" data-name="Trazado 983392" d="M-8538.051-7760.523h400" transform="translate(9138.051 11826)" fill="none" stroke="#000" stroke-width="3"/>
        <path id="Trazado_983393" data-name="Trazado 983393" d="M-8538.051-7760.523h222" transform="translate(-7055.523 12381.527) rotate(90)" fill="none" stroke="#000" stroke-width="3" stroke-dasharray="6"/>
        <path id="Trazado_983394" data-name="Trazado 983394" d="M-8538.051-7760.523h222" transform="translate(-6960.523 12381.527) rotate(90)" fill="none" stroke="#000" stroke-width="3" stroke-dasharray="6"/>
        <path id="Trazado_983395" data-name="Trazado 983395" d="M-8538.051-7760.523h222" transform="translate(-6865.523 12381.527) rotate(90)" fill="none" stroke="#000" stroke-width="3" stroke-dasharray="6"/>
      </g>
      <circle id="Elipse_11622" data-name="Elipse 11622" cx="6.5" cy="6.5" r="6.5" transform="translate(722.051 4011)"/>
      <circle id="Elipse_11623" data-name="Elipse 11623" cx="6.5" cy="6.5" r="6.5" transform="translate(869.051 4011)"/>
      <path id="Trazado_983577" data-name="Trazado 983577" d="M.346,0,1.828-8.531l2.637.006a3.938,3.938,0,0,1,.984.141,2.131,2.131,0,0,1,.785.4,1.7,1.7,0,0,1,.5.686,2.161,2.161,0,0,1,.123,1,1.829,1.829,0,0,1-.161.627,2.038,2.038,0,0,1-.34.51,2.5,2.5,0,0,1-.475.4,3.654,3.654,0,0,1-.565.3,1.594,1.594,0,0,1,.521.319,1.641,1.641,0,0,1,.349.463,2.073,2.073,0,0,1,.188.563,2.34,2.34,0,0,1,.032.606,2.608,2.608,0,0,1-.313,1.1,2.51,2.51,0,0,1-.686.785,2.942,2.942,0,0,1-.958.469A3.924,3.924,0,0,1,3.316,0ZM2.139-3.99,1.605-.92l1.74.006a2.4,2.4,0,0,0,.709-.1,1.914,1.914,0,0,0,.6-.3,1.666,1.666,0,0,0,.437-.5,1.757,1.757,0,0,0,.22-.683,1.37,1.37,0,0,0-.24-1.078,1.307,1.307,0,0,0-1.014-.41Zm.158-.9,1.588.006a2.419,2.419,0,0,0,.65-.088,1.848,1.848,0,0,0,.571-.267,1.53,1.53,0,0,0,.422-.445,1.543,1.543,0,0,0,.214-.63A1.4,1.4,0,0,0,5.707-6.9a.845.845,0,0,0-.252-.393,1.087,1.087,0,0,0-.437-.223A2.585,2.585,0,0,0,4.441-7.6L2.766-7.605ZM11.344,0A1.42,1.42,0,0,1,11.3-.334a3.245,3.245,0,0,1,.018-.334,3.385,3.385,0,0,1-.85.577,2.193,2.193,0,0,1-1,.208,2.161,2.161,0,0,1-.744-.138,1.768,1.768,0,0,1-.6-.372A1.621,1.621,0,0,1,7.74-.967a1.707,1.707,0,0,1-.111-.744,1.942,1.942,0,0,1,.319-1.014,2.188,2.188,0,0,1,.718-.659,3.215,3.215,0,0,1,.961-.357,5.2,5.2,0,0,1,1.049-.108l1.107.006.07-.5a1.5,1.5,0,0,0-.023-.5.941.941,0,0,0-.187-.39.894.894,0,0,0-.349-.255,1.33,1.33,0,0,0-.5-.1,1.78,1.78,0,0,0-.486.056,1.565,1.565,0,0,0-.442.188,1.312,1.312,0,0,0-.349.316,1.076,1.076,0,0,0-.2.442l-1.066.006a1.643,1.643,0,0,1,.308-.829A2.31,2.31,0,0,1,9.2-6a2.876,2.876,0,0,1,.829-.352,3.36,3.36,0,0,1,.873-.108,2.593,2.593,0,0,1,.87.161,1.819,1.819,0,0,1,.659.425,1.669,1.669,0,0,1,.4.665,2.179,2.179,0,0,1,.079.882l-.486,2.947a4.8,4.8,0,0,0-.062.645,2.285,2.285,0,0,0,.073.639l-.012.1ZM9.68-.82A1.823,1.823,0,0,0,10.2-.882a1.958,1.958,0,0,0,.472-.2,2.324,2.324,0,0,0,.413-.3,2.583,2.583,0,0,0,.343-.387l.229-1.307-.8-.006a5.535,5.535,0,0,0-.674.044,2.472,2.472,0,0,0-.668.176,1.525,1.525,0,0,0-.53.369,1.082,1.082,0,0,0-.267.624,1,1,0,0,0,.032.431.86.86,0,0,0,.19.328A.846.846,0,0,0,9.255-.9,1.264,1.264,0,0,0,9.68-.82Zm6.3-5.525-.152.8a3.137,3.137,0,0,1,.873-.674,2.2,2.2,0,0,1,1.072-.24,1.812,1.812,0,0,1,.847.2,1.423,1.423,0,0,1,.53.5,1.869,1.869,0,0,1,.252.729,3.607,3.607,0,0,1,.012.873L18.727,0H17.666l.7-4.172a2.226,2.226,0,0,0,.006-.533,1.1,1.1,0,0,0-.138-.431.776.776,0,0,0-.311-.293,1.138,1.138,0,0,0-.519-.114,1.533,1.533,0,0,0-.516.073,1.865,1.865,0,0,0-.448.217,2.181,2.181,0,0,0-.387.328,3.52,3.52,0,0,0-.325.4L14.941,0H13.881l1.1-6.34Zm4.682,3.164a5.491,5.491,0,0,1,.155-.791,4.643,4.643,0,0,1,.281-.765,4.03,4.03,0,0,1,.41-.686,2.764,2.764,0,0,1,.545-.554,2.47,2.47,0,0,1,.683-.366,2.294,2.294,0,0,1,.826-.12,2.387,2.387,0,0,1,.908.2,1.811,1.811,0,0,1,.721.577L25.8-9h1.061L25.307,0H24.34l.111-.68a2.451,2.451,0,0,1-.832.606,2.392,2.392,0,0,1-1.02.19,1.865,1.865,0,0,1-.729-.155,1.739,1.739,0,0,1-.542-.384,2.121,2.121,0,0,1-.378-.554,3.043,3.043,0,0,1-.226-.662,4.113,4.113,0,0,1-.091-.715,4.94,4.94,0,0,1,.021-.706Zm1.049.123a4.205,4.205,0,0,0-.032.486,3.565,3.565,0,0,0,.029.5,2.4,2.4,0,0,0,.111.475,1.307,1.307,0,0,0,.22.4,1.078,1.078,0,0,0,.354.281A1.175,1.175,0,0,0,22.91-.8a1.543,1.543,0,0,0,.5-.056,1.8,1.8,0,0,0,.434-.19,1.939,1.939,0,0,0,.375-.3,3.626,3.626,0,0,0,.325-.381l.5-2.93a1.439,1.439,0,0,0-.5-.647,1.377,1.377,0,0,0-.782-.243,1.566,1.566,0,0,0-.85.2,1.982,1.982,0,0,0-.6.551,2.85,2.85,0,0,0-.39.765,4.322,4.322,0,0,0-.2.841ZM32.672-1.5l2.021-4.84h1.1L32.9,0h-.861l-.656-4.793L29.1,0h-.861l-.686-6.34h1.014l.387,4.723L31.2-6.34h.855ZM36.938,0H35.883l1.1-6.34h1.055Zm.252-8a.665.665,0,0,1,.176-.457.62.62,0,0,1,.445-.193.631.631,0,0,1,.255.038.565.565,0,0,1,.2.129.565.565,0,0,1,.129.2.688.688,0,0,1,.044.249.637.637,0,0,1-.179.451.642.642,0,0,1-.448.188.584.584,0,0,1-.451-.158A.573.573,0,0,1,37.189-8Zm4.283.129L41.2-6.34h1.154l-.146.838H41.063L40.4-1.559a1.4,1.4,0,0,0-.006.284.63.63,0,0,0,.064.234.381.381,0,0,0,.158.161.565.565,0,0,0,.275.059,1.906,1.906,0,0,0,.258-.018q.129-.018.258-.041l-.082.885a2.885,2.885,0,0,1-.773.105,1.216,1.216,0,0,1-.606-.149,1.079,1.079,0,0,1-.384-.378,1.469,1.469,0,0,1-.187-.536,2.549,2.549,0,0,1-.018-.624L40-5.5H38.883l.146-.838h1.119l.27-1.535Zm3.041,2.309a2.953,2.953,0,0,1,.861-.656,2.221,2.221,0,0,1,1.055-.229,1.767,1.767,0,0,1,.847.193,1.423,1.423,0,0,1,.53.5,1.869,1.869,0,0,1,.252.729,3.607,3.607,0,0,1,.012.873L47.379,0H46.318l.7-4.172a2.226,2.226,0,0,0,.006-.533,1.1,1.1,0,0,0-.138-.431.776.776,0,0,0-.311-.293,1.138,1.138,0,0,0-.519-.114,1.584,1.584,0,0,0-.516.07,1.729,1.729,0,0,0-.448.217,2.358,2.358,0,0,0-.387.328,3.1,3.1,0,0,0-.325.4L43.594,0H42.533L44.1-9h1.061ZM56.063,0h-1.09V-7.225l-2.186.8v-.984l3.105-1.166h.17Zm3.023-3.223a3.714,3.714,0,0,1,.691-2.347,2.186,2.186,0,0,1,1.811-.888,2.2,2.2,0,0,1,1.764.762V-9h1.084V0h-1l-.053-.68a2.208,2.208,0,0,1-1.811.8,2.165,2.165,0,0,1-1.8-.9,3.756,3.756,0,0,1-.694-2.355ZM60.17-3.1a2.812,2.812,0,0,0,.445,1.688,1.44,1.44,0,0,0,1.23.609,1.581,1.581,0,0,0,1.506-.926V-4.641a1.593,1.593,0,0,0-1.494-.9,1.446,1.446,0,0,0-1.242.615A3.1,3.1,0,0,0,60.17-3.1Zm7.418-4.775V-6.34h1.184V-5.5H67.588v3.937a.88.88,0,0,0,.158.572.666.666,0,0,0,.539.191,2.624,2.624,0,0,0,.516-.07V0a3.161,3.161,0,0,1-.832.116,1.35,1.35,0,0,1-1.1-.439A1.888,1.888,0,0,1,66.5-1.57V-5.5H65.35V-6.34H66.5V-7.875Zm3.533,2.3A2.3,2.3,0,0,1,73-6.457q2.01,0,2.027,2.268V0H73.939V-4.2a1.459,1.459,0,0,0-.313-1.014,1.256,1.256,0,0,0-.958-.328,1.564,1.564,0,0,0-.926.281,1.91,1.91,0,0,0-.621.738V0H70.037V-9h1.084Z" transform="translate(810.051 3999)"/>
      <path id="Trazado_983576" data-name="Trazado 983576" d="M11.865-7.849H4.407V0H2.063V-17.773H13.074v1.917H4.407v6.091h7.458ZM19.009,8H17.685V-.779L15.029.2V-1L18.8-2.417h.206Z" transform="translate(695.051 4104)" fill="#12263f"/>
      <path id="Trazado_983575" data-name="Trazado 983575" d="M11.865-7.849H4.407V0H2.063V-17.773H13.074v1.917H4.407v6.091h7.458Zm6.04,14.916a1.9,1.9,0,0,0,1.232-.427,1.5,1.5,0,0,0,.584-1.068h1.246a2.389,2.389,0,0,1-.456,1.26,3,3,0,0,1-1.121.954,3.236,3.236,0,0,1-1.485.356,3.174,3.174,0,0,1-2.5-1.05,4.183,4.183,0,0,1-.929-2.873V4a4.638,4.638,0,0,1,.413-2A3.145,3.145,0,0,1,16.072.638,3.368,3.368,0,0,1,17.9.153a3.09,3.09,0,0,1,2.154.776,2.774,2.774,0,0,1,.915,2.015H19.721a1.815,1.815,0,0,0-.566-1.228A1.761,1.761,0,0,0,17.9,1.236a1.844,1.844,0,0,0-1.556.723,3.394,3.394,0,0,0-.552,2.09V4.3a3.326,3.326,0,0,0,.548,2.051A1.853,1.853,0,0,0,17.905,7.067Z" transform="translate(790.051 4104)" fill="#12263f"/>
      <path id="Trazado_983574" data-name="Trazado 983574" d="M11.865-7.849H4.407V0H2.063V-17.773H13.074v1.917H4.407v6.091h7.458ZM21.473,8H14.68V7.053l3.589-3.987a8.526,8.526,0,0,0,1.1-1.47,2.454,2.454,0,0,0,.3-1.171A1.86,1.86,0,0,0,19.18-.908a1.718,1.718,0,0,0-1.31-.52,2.034,2.034,0,0,0-1.527.559A2.135,2.135,0,0,0,15.8.687H14.481A3.058,3.058,0,0,1,15.4-1.627,3.418,3.418,0,0,1,17.87-2.51a3.285,3.285,0,0,1,2.286.758A2.587,2.587,0,0,1,21,.267Q21,1.8,19.045,3.913L16.268,6.925h5.2Z" transform="translate(882.051 4104)" fill="#12263f"/>
    </g>
  </g>
</svg>
