<svg xmlns="http://www.w3.org/2000/svg" width="190" height="153" viewBox="0 0 190 153">
  <g id="Grupo_1115749" data-name="Grupo 1115749" transform="translate(-1230.051 -4426)">
    <g id="Grupo_1115741" data-name="Grupo 1115741" transform="translate(859.949 1599)">
      <rect id="Rectángulo_408046" data-name="Rectángulo 408046" width="190" height="153" rx="12" transform="translate(370.102 2827)" fill="#e2dacc"/>
    </g>
    <g id="Layer_x0020_1" transform="translate(1268.91 4446.86)">
      <g id="_331868448" transform="translate(9.141 9.14)">
        <g id="Grupo_1115748" data-name="Grupo 1115748">
          <g id="Grupo_1115746" data-name="Grupo 1115746" transform="translate(1.028 1.029)">
            <path id="_331833840" d="M36.606,56.343a3.575,3.575,0,0,1,3.565,3.565V79.354a3.565,3.565,0,0,1-7.13,0V59.908a3.575,3.575,0,0,1,3.565-3.565Zm57.9,0a3.575,3.575,0,0,1,3.565,3.565V79.354a3.565,3.565,0,0,1-7.13,0V59.908a3.575,3.575,0,0,1,3.565-3.565ZM80.033,49.862A3.576,3.576,0,0,1,83.6,53.427V85.835a3.565,3.565,0,0,1-7.13,0V53.427A3.575,3.575,0,0,1,80.033,49.862ZM65.557,43.38a3.576,3.576,0,0,1,3.565,3.565V92.317a3.565,3.565,0,0,1-7.13,0V46.945a3.575,3.575,0,0,1,3.565-3.565ZM51.081,49.862a3.576,3.576,0,0,1,3.565,3.565V85.835a3.565,3.565,0,0,1-7.13,0V53.427a3.575,3.575,0,0,1,3.565-3.565Z" transform="translate(-19.586 -23.659)" fill="#fc7777" fill-rule="evenodd"/>
            <g id="Grupo_1115742" data-name="Grupo 1115742">
              <path id="_331834200" d="M31.192,43.053a2.777,2.777,0,1,0,5.551.2,6.773,6.773,0,0,1,6.51-6.51,2.777,2.777,0,1,0-.2-5.551A12.294,12.294,0,0,0,31.192,43.053Z" transform="translate(-18.856 -18.856)" fill="#4794a2"/>
              <path id="_331869888" d="M10.839,34.613a3.137,3.137,0,0,0,6.271.226A18.419,18.419,0,0,1,34.839,17.11a3.137,3.137,0,1,0-.226-6.27A24.655,24.655,0,0,0,10.839,34.613Z" transform="translate(-10.837 -10.837)" fill="#4794a2"/>
            </g>
            <g id="Grupo_1115743" data-name="Grupo 1115743" transform="translate(64.869)">
              <path id="_331869960" d="M132.621,43.053a2.777,2.777,0,1,1-5.551.2,6.773,6.773,0,0,0-6.51-6.51,2.777,2.777,0,1,1,.2-5.551,12.294,12.294,0,0,1,11.861,11.861Z" transform="translate(-117.883 -18.856)" fill="#4794a2"/>
              <path id="_331869984" d="M144.987,34.613a3.137,3.137,0,0,1-6.271.226A18.419,18.419,0,0,0,120.987,17.11a3.137,3.137,0,1,1,.226-6.27,24.655,24.655,0,0,1,23.773,23.773Z" transform="translate(-117.915 -10.837)" fill="#4794a2"/>
            </g>
            <g id="Grupo_1115744" data-name="Grupo 1115744" transform="translate(0 64.87)">
              <path id="_331870080" d="M31.192,120.761a2.777,2.777,0,1,1,5.551-.2,6.773,6.773,0,0,0,6.51,6.51,2.777,2.777,0,1,1-.2,5.551,12.294,12.294,0,0,1-11.861-11.861Z" transform="translate(-18.856 -117.884)" fill="#4794a2"/>
              <path id="_331869912" d="M10.839,121.213a3.137,3.137,0,0,1,6.271-.226,18.419,18.419,0,0,0,17.729,17.729,3.137,3.137,0,1,1-.226,6.27,24.655,24.655,0,0,1-23.773-23.773Z" transform="translate(-10.837 -117.915)" fill="#4794a2"/>
            </g>
            <g id="Grupo_1115745" data-name="Grupo 1115745" transform="translate(64.869 64.87)">
              <path id="_331869168" d="M132.621,120.761a2.777,2.777,0,1,0-5.551-.2,6.773,6.773,0,0,1-6.51,6.51,2.777,2.777,0,1,0,.2,5.551,12.294,12.294,0,0,0,11.861-11.861Z" transform="translate(-117.883 -117.884)" fill="#4794a2"/>
              <path id="_331869456" d="M144.987,121.213a3.137,3.137,0,0,0-6.271-.226,18.419,18.419,0,0,1-17.729,17.729,3.137,3.137,0,1,0,.226,6.27,24.655,24.655,0,0,0,23.773-23.773Z" transform="translate(-117.915 -117.915)" fill="#4794a2"/>
            </g>
          </g>
          <g id="Grupo_1115747" data-name="Grupo 1115747">
            <path id="_331869600" d="M35.936,56.7A2.542,2.542,0,0,0,33.4,59.24V78.686a2.539,2.539,0,1,0,5.078,0V59.24A2.542,2.542,0,0,0,35.936,56.7Zm0,26.576a4.6,4.6,0,0,1-4.591-4.591V59.24a4.591,4.591,0,0,1,9.183,0V78.686a4.6,4.6,0,0,1-4.591,4.591ZM93.842,56.7A2.542,2.542,0,0,0,91.3,59.24V78.686a2.539,2.539,0,1,0,5.078,0V59.24A2.542,2.542,0,0,0,93.842,56.7Zm0,26.576a4.6,4.6,0,0,1-4.591-4.591V59.24a4.591,4.591,0,0,1,9.183,0V78.686a4.6,4.6,0,0,1-4.591,4.591ZM50.413,50.219a2.542,2.542,0,0,0-2.539,2.539v32.41a2.539,2.539,0,1,0,5.078,0V52.758A2.542,2.542,0,0,0,50.413,50.219Zm0,39.54a4.6,4.6,0,0,1-4.591-4.591V52.758a4.591,4.591,0,1,1,9.182,0v32.41a4.6,4.6,0,0,1-4.591,4.591Zm28.953-39.54a2.542,2.542,0,0,0-2.539,2.539v32.41a2.539,2.539,0,1,0,5.078,0V52.758A2.542,2.542,0,0,0,79.366,50.219Zm0,39.54a4.6,4.6,0,0,1-4.591-4.591V52.758a4.591,4.591,0,0,1,9.183,0v32.41A4.6,4.6,0,0,1,79.366,89.759ZM64.889,43.737a2.542,2.542,0,0,0-2.539,2.539V91.65a2.539,2.539,0,0,0,5.078,0V46.276A2.542,2.542,0,0,0,64.889,43.737Zm0,52.5A4.6,4.6,0,0,1,60.3,91.65V46.276a4.591,4.591,0,0,1,9.183,0V91.65A4.6,4.6,0,0,1,64.889,96.241Z" transform="translate(-17.889 -21.963)" fill-rule="evenodd"/>
            <path id="_331869048" d="M30.522,42.383h0ZM42.484,31.546h-.064A11.268,11.268,0,0,0,31.548,42.421a1.751,1.751,0,0,0,3.5.126,7.8,7.8,0,0,1,7.5-7.5,1.752,1.752,0,0,0-.063-3.5ZM33.3,46.287l-.14,0A3.809,3.809,0,0,1,29.5,42.347h0A13.32,13.32,0,0,1,42.347,29.5a3.8,3.8,0,0,1,.274,7.6A5.747,5.747,0,0,0,37.1,42.621a3.8,3.8,0,0,1-3.8,3.667Z" transform="translate(-17.16 -17.16)" fill-rule="evenodd"/>
            <path id="_331869576" d="M10.169,33.943h0Zm23.89-22.75H33.98A23.63,23.63,0,0,0,11.194,33.98s0,0,0,0a2.111,2.111,0,0,0,4.22.152A19.446,19.446,0,0,1,34.133,15.414a2.111,2.111,0,0,0-.074-4.221ZM13.306,38.219c-.05,0-.1,0-.152,0a4.164,4.164,0,0,1-4.011-4.31h0A25.682,25.682,0,0,1,33.907,9.143a4.164,4.164,0,0,1,.3,8.322A17.393,17.393,0,0,0,17.465,34.206,4.169,4.169,0,0,1,13.306,38.219Z" transform="translate(-9.141 -9.14)" fill-rule="evenodd"/>
            <path id="_331869672" d="M120,31.546a1.752,1.752,0,0,0-.063,3.5,7.8,7.8,0,0,1,7.5,7.5,1.751,1.751,0,0,0,3.5-.126,11.268,11.268,0,0,0-10.873-10.873Zm9.183,14.741a3.8,3.8,0,0,1-3.8-3.667,5.747,5.747,0,0,0-5.521-5.521,3.8,3.8,0,1,1,.273-7.6,13.321,13.321,0,0,1,12.85,12.85,3.808,3.808,0,0,1-3.664,3.938c-.047,0-.094,0-.14,0Z" transform="translate(-51.319 -17.16)" fill-rule="evenodd"/>
            <path id="_331869192" d="M120.433,11.193a2.111,2.111,0,0,0-.074,4.221,19.446,19.446,0,0,1,18.718,18.718,2.111,2.111,0,0,0,4.22-.152s0,0,0,0a23.63,23.63,0,0,0-22.786-22.786h-.078ZM141.185,38.22a4.167,4.167,0,0,1-4.158-4.013,17.395,17.395,0,0,0-16.742-16.741,4.164,4.164,0,1,1,.3-8.322,25.682,25.682,0,0,1,24.763,24.763h0a4.168,4.168,0,0,1-4.011,4.311C141.285,38.219,141.236,38.22,141.185,38.22Z" transform="translate(-51.351 -9.14)" fill-rule="evenodd"/>
            <path id="_331869552" d="M33.3,118.244h-.064a1.753,1.753,0,0,0-1.687,1.813,11.268,11.268,0,0,0,10.873,10.873,1.751,1.751,0,1,0,.126-3.5,7.8,7.8,0,0,1-7.5-7.5A1.754,1.754,0,0,0,33.3,118.244Zm9.187,14.741c-.046,0-.092,0-.139,0a13.32,13.32,0,0,1-12.85-12.85,3.8,3.8,0,1,1,7.6-.274,5.747,5.747,0,0,0,5.521,5.521,3.8,3.8,0,0,1-.135,7.6Z" transform="translate(-17.16 -51.319)" fill-rule="evenodd"/>
            <path id="_331868976" d="M13.305,118.323l-.077,0a2.112,2.112,0,0,0-2.034,2.186s0,0,0,0A23.631,23.631,0,0,0,33.98,143.3a2.111,2.111,0,0,0,.152-4.22,19.445,19.445,0,0,1-18.718-18.718,2.115,2.115,0,0,0-2.109-2.036ZM34.06,145.35l-.154,0A25.682,25.682,0,0,1,9.144,120.584a4.164,4.164,0,0,1,8.322-.3,17.394,17.394,0,0,0,16.741,16.741,4.164,4.164,0,0,1-.146,8.324Z" transform="translate(-9.141 -51.35)" fill-rule="evenodd"/>
            <path id="_331868304" d="M129.181,118.244a1.754,1.754,0,0,0-1.749,1.688,7.8,7.8,0,0,1-7.5,7.5,1.751,1.751,0,0,0,.126,3.5,11.268,11.268,0,0,0,10.873-10.873,1.753,1.753,0,0,0-1.687-1.813h-.064Zm-9.187,14.741a3.8,3.8,0,0,1-.135-7.6,5.747,5.747,0,0,0,5.522-5.521,3.8,3.8,0,1,1,7.6.274h0a13.321,13.321,0,0,1-12.85,12.85c-.046,0-.093,0-.139,0Z" transform="translate(-51.32 -51.319)" fill-rule="evenodd"/>
            <path id="_331868688" d="M141.185,118.323a2.113,2.113,0,0,0-2.108,2.036,19.445,19.445,0,0,1-18.719,18.718,2.111,2.111,0,0,0,.152,4.22A23.63,23.63,0,0,0,143.3,120.51s0,0,0,0a2.112,2.112,0,0,0-2.033-2.186ZM120.431,145.35a4.164,4.164,0,0,1-.146-8.324,17.395,17.395,0,0,0,16.742-16.741,4.163,4.163,0,1,1,8.32.3,25.682,25.682,0,0,1-24.763,24.763C120.533,145.349,120.482,145.35,120.431,145.35Z" transform="translate(-51.351 -51.35)" fill-rule="evenodd"/>
          </g>
        </g>
      </g>
    </g>
  </g>
</svg>
