<svg xmlns="http://www.w3.org/2000/svg" xmlns:xlink="http://www.w3.org/1999/xlink" width="687" height="412" viewBox="0 0 687 412">
  <defs>
    <clipPath id="clip-path">
      <rect id="Rectángulo_408082" data-name="Rectángulo 408082" width="256.748" height="102.71" fill="none" stroke="#4794a2" stroke-width="3"/>
    </clipPath>
  </defs>
  <g id="Grupo_1115942" data-name="Grupo 1115942" transform="translate(-457 -1805)">
    <path id="Trazado_983567" data-name="Trazado 983567" d="M12,0H321a12,12,0,0,1,12,12V185a12,12,0,0,1-12,12H12A12,12,0,0,1,0,185V12A12,12,0,0,1,12,0Z" transform="translate(457 1805)" fill="#f7e081"/>
    <g id="Grupo_1115868" data-name="Grupo 1115868">
      <path id="Trazado_983414" data-name="Trazado 983414" d="M.5,70.483S2.4-35.764,9.986,13.565s5.692,130.911,15.178,110.041S36.548-7.3,44.137,11.668s1.9,136.6,15.178,110.041S72.6-16.791,80.185,7.873s7.551,139.5,17.056,119.079S112.438-9.2,118.13,11.668s3.795,134.705,15.178,110.041S156.075-35.764,157.972,13.565s3.795,136.6,11.384,110.041S186.431-26.278,192.123,13.565s5.692,138.5,15.178,110.041,9.936-58.669,9.936-58.669" transform="translate(510.5 1850)" fill="none" stroke="#4794a2" stroke-miterlimit="10" stroke-width="3"/>
      <g id="Grupo_1115759" data-name="Grupo 1115759" transform="translate(121 27)">
        <path id="Trazado_983421" data-name="Trazado 983421" d="M-5867-9720.063h261.752" transform="translate(6237 11608)" fill="none" stroke="#000" stroke-width="2"/>
        <path id="Polígono_6" data-name="Polígono 6" d="M7.5,0,15,12H0Z" transform="translate(641.5 1880.5) rotate(90)"/>
      </g>
      <g id="Grupo_1115762" data-name="Grupo 1115762" transform="translate(121 27)">
        <path id="Trazado_983421-2" data-name="Trazado 983421" d="M-5867-9720.063h261.752" transform="translate(6237 11608)" fill="none" stroke="#000" stroke-width="2"/>
        <path id="Polígono_6-2" data-name="Polígono 6" d="M7.5,0,15,12H0Z" transform="translate(641.5 1880.5) rotate(90)"/>
      </g>
    </g>
    <path id="Trazado_983569" data-name="Trazado 983569" d="M12,0H321a12,12,0,0,1,12,12V185a12,12,0,0,1-12,12H12A12,12,0,0,1,0,185V12A12,12,0,0,1,12,0Z" transform="translate(811 1805)" fill="#f7e081"/>
    <g id="Grupo_1115867" data-name="Grupo 1115867">
      <path id="Trazado_983415" data-name="Trazado 983415" d="M176.29,53.384s35.49-85.747,70.66-15.409,56.15,77.392,71.868,42.815c15.291-33.64,24.466-67.28,62.693-67.28" transform="translate(693.495 1866.876)" fill="none" stroke="#4794a2" stroke-miterlimit="10" stroke-width="3"/>
      <g id="Grupo_1115760" data-name="Grupo 1115760" transform="translate(467 28.572)">
        <path id="Trazado_983421-3" data-name="Trazado 983421" d="M-5867-9720.063h249.5" transform="translate(6237 11608)" fill="none" stroke="#000" stroke-width="2"/>
        <path id="Polígono_6-3" data-name="Polígono 6" d="M7.5,0,15,12H0Z" transform="translate(629.246 1880.5) rotate(90)"/>
      </g>
    </g>
    <path id="Trazado_983571" data-name="Trazado 983571" d="M12,0H321a12,12,0,0,1,12,12V189a12,12,0,0,1-12,12H12A12,12,0,0,1,0,189V12A12,12,0,0,1,12,0Z" transform="translate(457 2016)" fill="#f7e081"/>
    <g id="Grupo_1115869" data-name="Grupo 1115869">
      <g id="Grupo_1115764" data-name="Grupo 1115764" transform="translate(19 0.461)">
        <g id="Grupo_1115756" data-name="Grupo 1115756" transform="translate(475 2075.094)">
          <g id="Grupo_1115755" data-name="Grupo 1115755" transform="translate(0 0)" clip-path="url(#clip-path)">
            <path id="Trazado_983416" data-name="Trazado 983416" d="M.788,48.636S-.79-16.146,3.44,9.235,7.67,112.171,13.311,91.02s2.82-109.986,9.871-83.194S27,116.574,33.552,94.631,48.563-24.607,59.843,20.516s7.05,86.015,14.1,70.5S83.814-13.326,89.455,9.235s5.64,100.115,9.871,83.194,8.46-109.986,12.691-83.194,1.41,105.756,7.05,84.6S131.757-10.506,141.627,7.825s9.871,118.446,21.151,77.554S183.93-23.2,192.39,20.516s7.05,95.885,14.1,67.684S216.361-21.786,222,12.055s4.23,105.756,9.871,77.554,8.46-117.036,14.1-80.374,4.23,122.677,9.871,81.784" transform="translate(0.205 0.205)" fill="none" stroke="#4794a2" stroke-miterlimit="10" stroke-width="3"/>
          </g>
        </g>
        <g id="Grupo_1115763" data-name="Grupo 1115763" transform="translate(102 238.449)">
          <path id="Trazado_983421-4" data-name="Trazado 983421" d="M-5867-9720.063h261.752" transform="translate(6237 11608)" fill="none" stroke="#000" stroke-width="2"/>
          <path id="Polígono_6-4" data-name="Polígono 6" d="M7.5,0,15,12H0Z" transform="translate(641.5 1880.5) rotate(90)"/>
        </g>
      </g>
    </g>
    <path id="Trazado_983572" data-name="Trazado 983572" d="M12,0H321a12,12,0,0,1,12,12V189a12,12,0,0,1-12,12H12A12,12,0,0,1,0,189V12A12,12,0,0,1,12,0Z" transform="translate(811 2016)" fill="#f7e081"/>
    <g id="Grupo_1115870" data-name="Grupo 1115870">
      <path id="Trazado_983418" data-name="Trazado 983418" d="M.5,48.732s2.945-60.38,8.836-20.618,2.945,81,7.363,57.435S24.8-18.14,28.847,14.56s2.272,103.921,8.316,77.883S47.625-24.9,52.043,11.915s4.418,106.033,8.836,79.525S68.243-20.484,72.661,13.387s-1.473,103.088,7.363,72.162c3.367-11.783,7.568-44.791,7.568-44.791S92.577-2.6,96.224,19.278c5.891,35.344,7.363,83.943,10.309,61.853s2.945-81,8.836-53.017,5.891,66.271,11.781,48.6,5.891-69.216,11.781-48.6,4.418,72.162,10.309,53.017,2.945-88.361,10.309-61.853,7.363,86.888,11.781,69.216,7.363-100.143,11.781-75.107S186.057,115,193.421,91.44s8.836-113.4,13.254-82.47,2.945,113.4,8.836,85.416,10.309-114.869,14.727-81,5.891,97.2,10.309,75.107,8.836-95.724,11.781-67.743,2.945,91.306,8.836,60.38" transform="translate(835.419 2080.48)" fill="none" stroke="#4794a2" stroke-miterlimit="10" stroke-width="3"/>
      <path id="Trazado_983419" data-name="Trazado 983419" d="M.5,20.253S30.72-8.759,59.791,3.538,127.15,34.98,144.822,26.144,190.394,1.55,210.315,3.538,256.942,17.4,269.361,28.4" transform="translate(835.419 2078.055)" fill="none" stroke="#ff1414" stroke-miterlimit="10" stroke-width="3"/>
      <path id="Trazado_983420" data-name="Trazado 983420" d="M.5,58.147S40.261,81.916,68.243,70.134s61.408-22.5,95.5-11.988,56.184,31.133,101.838,1.679" transform="translate(835.419 2103.278)" fill="none" stroke="red" stroke-miterlimit="10" stroke-width="3"/>
      <rect id="Rectángulo_408083" data-name="Rectángulo 408083" width="270.086" height="102.035" transform="translate(835.184 2077.817)" fill="none" stroke="#4794a2" stroke-width="3"/>
      <g id="Grupo_1115761" data-name="Grupo 1115761" transform="translate(829 2126.576)">
        <path id="Trazado_983421-5" data-name="Trazado 983421" d="M-5867-9720.063h288.267" transform="translate(5867 9725.2)" fill="none" stroke="#000" stroke-width="2"/>
        <path id="Polígono_6-5" data-name="Polígono 6" d="M5.181,0l5.181,8.289H0Z" transform="translate(295 0) rotate(90)"/>
      </g>
    </g>
    <path id="Trazado_983568" data-name="Trazado 983568" d="M10.07-5.32A7.037,7.037,0,0,1,9.508-2.4,4.261,4.261,0,0,1,7.914-.5,4.385,4.385,0,0,1,5.508.156,4.347,4.347,0,0,1,3.125-.5,4.363,4.363,0,0,1,1.512-2.387a6.752,6.752,0,0,1-.59-2.832v-.82a6.953,6.953,0,0,1,.57-2.9,4.347,4.347,0,0,1,1.613-1.926,4.329,4.329,0,0,1,2.387-.668,4.41,4.41,0,0,1,2.41.66A4.253,4.253,0,0,1,9.508-8.957a7.071,7.071,0,0,1,.563,2.918ZM8.578-6.055A5.1,5.1,0,0,0,7.766-9.16a2.68,2.68,0,0,0-2.273-1.082A2.651,2.651,0,0,0,3.254-9.16a5,5,0,0,0-.84,3v.836a5.107,5.107,0,0,0,.824,3.082,2.662,2.662,0,0,0,2.27,1.121,2.652,2.652,0,0,0,2.25-1.059,5.079,5.079,0,0,0,.82-3.035Zm4.883-2.4.047,1.063a3.08,3.08,0,0,1,2.531-1.219q2.68,0,2.7,3.023V0H17.3V-5.594a1.946,1.946,0,0,0-.418-1.352A1.675,1.675,0,0,0,15.6-7.383a2.086,2.086,0,0,0-1.234.375,2.546,2.546,0,0,0-.828.984V0H12.094V-8.453ZM20.57-4.3a4.952,4.952,0,0,1,.922-3.129,2.915,2.915,0,0,1,2.414-1.184,2.932,2.932,0,0,1,2.352,1.016V-12H27.7V0H26.375L26.3-.906A2.943,2.943,0,0,1,23.891.156a2.887,2.887,0,0,1-2.395-1.2,5.008,5.008,0,0,1-.926-3.141Zm1.445.164a3.749,3.749,0,0,0,.594,2.25,1.92,1.92,0,0,0,1.641.813A2.108,2.108,0,0,0,26.258-2.3V-6.187a2.125,2.125,0,0,0-1.992-1.2,1.929,1.929,0,0,0-1.656.82A4.128,4.128,0,0,0,22.016-4.133ZM35.164,0a3.036,3.036,0,0,1-.2-.891A3.225,3.225,0,0,1,32.555.156,2.984,2.984,0,0,1,30.5-.551a2.287,2.287,0,0,1-.8-1.793,2.39,2.39,0,0,1,1-2.051,4.733,4.733,0,0,1,2.824-.73h1.406v-.664A1.623,1.623,0,0,0,34.484-7a1.821,1.821,0,0,0-1.336-.449,2.107,2.107,0,0,0-1.3.391,1.151,1.151,0,0,0-.523.945H29.875a2,2,0,0,1,.449-1.223,3.066,3.066,0,0,1,1.219-.934,4.1,4.1,0,0,1,1.691-.344,3.342,3.342,0,0,1,2.289.73,2.635,2.635,0,0,1,.859,2.012v3.891a4.757,4.757,0,0,0,.3,1.852V0Zm-2.4-1.1a2.54,2.54,0,0,0,1.289-.352,2.127,2.127,0,0,0,.883-.914V-4.1H33.8q-2.656,0-2.656,1.555A1.316,1.316,0,0,0,31.6-1.484,1.742,1.742,0,0,0,32.766-1.1ZM49.75-4.133a5.062,5.062,0,0,1-.883,3.109A2.829,2.829,0,0,1,46.477.156,3.1,3.1,0,0,1,44.055-.82V3.25H42.609v-11.7h1.32l.07.938a2.977,2.977,0,0,1,2.453-1.094,2.882,2.882,0,0,1,2.41,1.148,5.117,5.117,0,0,1,.887,3.2ZM48.3-4.3A3.735,3.735,0,0,0,47.7-6.555a1.963,1.963,0,0,0-1.672-.828,2.125,2.125,0,0,0-1.969,1.164V-2.18a2.129,2.129,0,0,0,1.984,1.156,1.954,1.954,0,0,0,1.652-.824A4.077,4.077,0,0,0,48.3-4.3ZM51.2-4.3a4.993,4.993,0,0,1,.488-2.234A3.643,3.643,0,0,1,53.051-8.07a3.7,3.7,0,0,1,1.988-.539,3.565,3.565,0,0,1,2.793,1.2A4.6,4.6,0,0,1,58.9-4.234v.1a5.036,5.036,0,0,1-.473,2.215A3.589,3.589,0,0,1,57.074-.391a3.743,3.743,0,0,1-2.02.547,3.556,3.556,0,0,1-2.785-1.2A4.575,4.575,0,0,1,51.2-4.2Zm1.453.172a3.616,3.616,0,0,0,.652,2.258,2.088,2.088,0,0,0,1.746.852,2.075,2.075,0,0,0,1.75-.863A3.955,3.955,0,0,0,57.453-4.3a3.61,3.61,0,0,0-.66-2.254,2.1,2.1,0,0,0-1.754-.863,2.075,2.075,0,0,0-1.727.852A3.925,3.925,0,0,0,52.656-4.133ZM64.8-7.156a4.331,4.331,0,0,0-.711-.055A1.9,1.9,0,0,0,62.156-6V0H60.711V-8.453h1.406l.023.977a2.251,2.251,0,0,1,2.016-1.133A1.477,1.477,0,0,1,64.8-8.5Zm3.68-3.344v2.047h1.578v1.117H68.477v5.249a1.173,1.173,0,0,0,.211.763.888.888,0,0,0,.719.254,3.5,3.5,0,0,0,.688-.094V0a4.215,4.215,0,0,1-1.109.155A1.8,1.8,0,0,1,67.523-.43a2.517,2.517,0,0,1-.492-1.664V-7.336H65.492V-8.453h1.539V-10.5ZM76.961,0a3.036,3.036,0,0,1-.2-.891A3.225,3.225,0,0,1,74.352.156,2.984,2.984,0,0,1,72.3-.551a2.288,2.288,0,0,1-.8-1.793,2.39,2.39,0,0,1,1-2.051,4.733,4.733,0,0,1,2.824-.73h1.406v-.664A1.623,1.623,0,0,0,76.281-7a1.821,1.821,0,0,0-1.336-.449,2.108,2.108,0,0,0-1.3.391,1.151,1.151,0,0,0-.523.945H71.672a2,2,0,0,1,.449-1.223,3.066,3.066,0,0,1,1.219-.934,4.1,4.1,0,0,1,1.691-.344,3.342,3.342,0,0,1,2.289.73,2.635,2.635,0,0,1,.859,2.012v3.891a4.757,4.757,0,0,0,.3,1.852V0Zm-2.4-1.1a2.54,2.54,0,0,0,1.289-.352,2.127,2.127,0,0,0,.883-.914V-4.1H75.6q-2.656,0-2.656,1.555A1.316,1.316,0,0,0,73.4-1.484,1.742,1.742,0,0,0,74.563-1.1Zm5.531-3.2a4.952,4.952,0,0,1,.922-3.129A2.915,2.915,0,0,1,83.43-8.609a2.932,2.932,0,0,1,2.352,1.016V-12h1.445V0H85.9l-.07-.906A2.943,2.943,0,0,1,83.414.156a2.887,2.887,0,0,1-2.395-1.2,5.008,5.008,0,0,1-.926-3.141Zm1.445.164a3.749,3.749,0,0,0,.594,2.25,1.92,1.92,0,0,0,1.641.813A2.109,2.109,0,0,0,85.781-2.3V-6.187a2.125,2.125,0,0,0-1.992-1.2,1.929,1.929,0,0,0-1.656.82A4.128,4.128,0,0,0,81.539-4.133ZM89.086-4.3a4.993,4.993,0,0,1,.488-2.234A3.643,3.643,0,0,1,90.934-8.07a3.7,3.7,0,0,1,1.988-.539,3.565,3.565,0,0,1,2.793,1.2,4.6,4.6,0,0,1,1.066,3.18v.1a5.036,5.036,0,0,1-.473,2.215A3.589,3.589,0,0,1,94.957-.391a3.743,3.743,0,0,1-2.02.547,3.556,3.556,0,0,1-2.785-1.2A4.575,4.575,0,0,1,89.086-4.2Zm1.453.172a3.616,3.616,0,0,0,.652,2.258,2.088,2.088,0,0,0,1.746.852,2.075,2.075,0,0,0,1.75-.863A3.955,3.955,0,0,0,95.336-4.3a3.61,3.61,0,0,0-.66-2.254,2.1,2.1,0,0,0-1.754-.863A2.075,2.075,0,0,0,91.2-6.57,3.925,3.925,0,0,0,90.539-4.133ZM102.68-7.156a4.331,4.331,0,0,0-.711-.055A1.9,1.9,0,0,0,100.039-6V0H98.594V-8.453H100l.023.977a2.251,2.251,0,0,1,2.016-1.133,1.477,1.477,0,0,1,.641.109ZM108.914,0a3.036,3.036,0,0,1-.2-.891A3.225,3.225,0,0,1,106.3.156a2.984,2.984,0,0,1-2.051-.707,2.288,2.288,0,0,1-.8-1.793,2.39,2.39,0,0,1,1-2.051,4.733,4.733,0,0,1,2.824-.73h1.406v-.664A1.623,1.623,0,0,0,108.234-7a1.821,1.821,0,0,0-1.336-.449,2.108,2.108,0,0,0-1.3.391,1.151,1.151,0,0,0-.523.945h-1.453a2,2,0,0,1,.449-1.223,3.066,3.066,0,0,1,1.219-.934,4.1,4.1,0,0,1,1.691-.344,3.342,3.342,0,0,1,2.289.73,2.635,2.635,0,0,1,.859,2.012v3.891a4.757,4.757,0,0,0,.3,1.852V0Zm-2.4-1.1a2.54,2.54,0,0,0,1.289-.352,2.127,2.127,0,0,0,.883-.914V-4.1h-1.133q-2.656,0-2.656,1.555a1.316,1.316,0,0,0,.453,1.063A1.742,1.742,0,0,0,106.516-1.1Z" transform="translate(568 1837)" fill="#12263f"/>
    <path id="Trazado_983570" data-name="Trazado 983570" d="M10.07-5.32A7.037,7.037,0,0,1,9.508-2.4,4.261,4.261,0,0,1,7.914-.5,4.385,4.385,0,0,1,5.508.156,4.347,4.347,0,0,1,3.125-.5,4.363,4.363,0,0,1,1.512-2.387a6.752,6.752,0,0,1-.59-2.832v-.82a6.953,6.953,0,0,1,.57-2.9,4.347,4.347,0,0,1,1.613-1.926,4.329,4.329,0,0,1,2.387-.668,4.41,4.41,0,0,1,2.41.66A4.253,4.253,0,0,1,9.508-8.957a7.071,7.071,0,0,1,.563,2.918ZM8.578-6.055A5.1,5.1,0,0,0,7.766-9.16a2.68,2.68,0,0,0-2.273-1.082A2.651,2.651,0,0,0,3.254-9.16a5,5,0,0,0-.84,3v.836a5.107,5.107,0,0,0,.824,3.082,2.662,2.662,0,0,0,2.27,1.121,2.652,2.652,0,0,0,2.25-1.059,5.079,5.079,0,0,0,.82-3.035Zm4.883-2.4.047,1.063a3.08,3.08,0,0,1,2.531-1.219q2.68,0,2.7,3.023V0H17.3V-5.594a1.946,1.946,0,0,0-.418-1.352A1.675,1.675,0,0,0,15.6-7.383a2.086,2.086,0,0,0-1.234.375,2.546,2.546,0,0,0-.828.984V0H12.094V-8.453ZM20.57-4.3a4.952,4.952,0,0,1,.922-3.129,2.915,2.915,0,0,1,2.414-1.184,2.932,2.932,0,0,1,2.352,1.016V-12H27.7V0H26.375L26.3-.906A2.943,2.943,0,0,1,23.891.156a2.887,2.887,0,0,1-2.395-1.2,5.008,5.008,0,0,1-.926-3.141Zm1.445.164a3.749,3.749,0,0,0,.594,2.25,1.92,1.92,0,0,0,1.641.813A2.108,2.108,0,0,0,26.258-2.3V-6.187a2.125,2.125,0,0,0-1.992-1.2,1.929,1.929,0,0,0-1.656.82A4.128,4.128,0,0,0,22.016-4.133ZM35.164,0a3.036,3.036,0,0,1-.2-.891A3.225,3.225,0,0,1,32.555.156,2.984,2.984,0,0,1,30.5-.551a2.287,2.287,0,0,1-.8-1.793,2.39,2.39,0,0,1,1-2.051,4.733,4.733,0,0,1,2.824-.73h1.406v-.664A1.623,1.623,0,0,0,34.484-7a1.821,1.821,0,0,0-1.336-.449,2.107,2.107,0,0,0-1.3.391,1.151,1.151,0,0,0-.523.945H29.875a2,2,0,0,1,.449-1.223,3.066,3.066,0,0,1,1.219-.934,4.1,4.1,0,0,1,1.691-.344,3.342,3.342,0,0,1,2.289.73,2.635,2.635,0,0,1,.859,2.012v3.891a4.757,4.757,0,0,0,.3,1.852V0Zm-2.4-1.1a2.54,2.54,0,0,0,1.289-.352,2.127,2.127,0,0,0,.883-.914V-4.1H33.8q-2.656,0-2.656,1.555A1.316,1.316,0,0,0,31.6-1.484,1.742,1.742,0,0,0,32.766-1.1Zm11.2-7.352.039.938a3.122,3.122,0,0,1,2.508-1.094A2.417,2.417,0,0,1,48.93-7.25a3.2,3.2,0,0,1,1.1-.984,3.242,3.242,0,0,1,1.6-.375q2.781,0,2.828,2.945V0H53.008V-5.578a1.941,1.941,0,0,0-.414-1.355A1.823,1.823,0,0,0,51.2-7.383a1.917,1.917,0,0,0-1.336.48,1.949,1.949,0,0,0-.617,1.293V0H47.8V-5.539a1.613,1.613,0,0,0-1.8-1.844,1.934,1.934,0,0,0-1.945,1.211V0H42.6V-8.453ZM56.25-4.3a4.993,4.993,0,0,1,.488-2.234A3.643,3.643,0,0,1,58.1-8.07a3.7,3.7,0,0,1,1.988-.539,3.565,3.565,0,0,1,2.793,1.2,4.6,4.6,0,0,1,1.066,3.18v.1a5.036,5.036,0,0,1-.473,2.215A3.589,3.589,0,0,1,62.121-.391,3.743,3.743,0,0,1,60.1.156a3.556,3.556,0,0,1-2.785-1.2A4.575,4.575,0,0,1,56.25-4.2Zm1.453.172a3.616,3.616,0,0,0,.652,2.258,2.088,2.088,0,0,0,1.746.852,2.075,2.075,0,0,0,1.75-.863A3.955,3.955,0,0,0,62.5-4.3a3.61,3.61,0,0,0-.66-2.254,2.1,2.1,0,0,0-1.754-.863,2.075,2.075,0,0,0-1.727.852A3.925,3.925,0,0,0,57.7-4.133Zm7.7-.164a4.952,4.952,0,0,1,.922-3.129,2.915,2.915,0,0,1,2.414-1.184,2.932,2.932,0,0,1,2.352,1.016V-12h1.445V0H71.211l-.07-.906A2.943,2.943,0,0,1,68.727.156a2.887,2.887,0,0,1-2.395-1.2,5.008,5.008,0,0,1-.926-3.141Zm1.445.164a3.749,3.749,0,0,0,.594,2.25,1.92,1.92,0,0,0,1.641.813A2.109,2.109,0,0,0,71.094-2.3V-6.187a2.125,2.125,0,0,0-1.992-1.2,1.929,1.929,0,0,0-1.656.82A4.128,4.128,0,0,0,66.852-4.133ZM80-.836a3.07,3.07,0,0,1-2.477.992,2.628,2.628,0,0,1-2.059-.785,3.4,3.4,0,0,1-.715-2.324v-5.5H76.2v5.461q0,1.922,1.563,1.922a2.163,2.163,0,0,0,2.2-1.234V-8.453h1.445V0H80.031ZM85.172,0H83.727V-12h1.445ZM92.7,0a3.036,3.036,0,0,1-.2-.891A3.225,3.225,0,0,1,90.094.156a2.984,2.984,0,0,1-2.051-.707,2.288,2.288,0,0,1-.8-1.793,2.39,2.39,0,0,1,1-2.051,4.733,4.733,0,0,1,2.824-.73h1.406v-.664A1.623,1.623,0,0,0,92.023-7a1.821,1.821,0,0,0-1.336-.449,2.108,2.108,0,0,0-1.3.391,1.151,1.151,0,0,0-.523.945H87.414a2,2,0,0,1,.449-1.223,3.066,3.066,0,0,1,1.219-.934,4.1,4.1,0,0,1,1.691-.344,3.342,3.342,0,0,1,2.289.73,2.635,2.635,0,0,1,.859,2.012v3.891a4.757,4.757,0,0,0,.3,1.852V0ZM90.3-1.1a2.54,2.54,0,0,0,1.289-.352,2.127,2.127,0,0,0,.883-.914V-4.1H91.344q-2.656,0-2.656,1.555a1.316,1.316,0,0,0,.453,1.063A1.742,1.742,0,0,0,90.3-1.1Zm5.531-3.2a4.952,4.952,0,0,1,.922-3.129,2.915,2.915,0,0,1,2.414-1.184,2.932,2.932,0,0,1,2.352,1.016V-12h1.445V0h-1.328l-.07-.906A2.943,2.943,0,0,1,99.156.156a2.887,2.887,0,0,1-2.395-1.2,5.008,5.008,0,0,1-.926-3.141Zm1.445.164a3.749,3.749,0,0,0,.594,2.25,1.92,1.92,0,0,0,1.641.813A2.109,2.109,0,0,0,101.523-2.3V-6.187a2.125,2.125,0,0,0-1.992-1.2,1.929,1.929,0,0,0-1.656.82A4.128,4.128,0,0,0,97.281-4.133Zm7.547-.172a4.993,4.993,0,0,1,.488-2.234,3.643,3.643,0,0,1,1.359-1.531,3.7,3.7,0,0,1,1.988-.539,3.565,3.565,0,0,1,2.793,1.2,4.6,4.6,0,0,1,1.066,3.18v.1a5.036,5.036,0,0,1-.473,2.215A3.589,3.589,0,0,1,110.7-.391a3.743,3.743,0,0,1-2.02.547,3.556,3.556,0,0,1-2.785-1.2A4.575,4.575,0,0,1,104.828-4.2Zm1.453.172a3.616,3.616,0,0,0,.652,2.258,2.088,2.088,0,0,0,1.746.852,2.075,2.075,0,0,0,1.75-.863,3.955,3.955,0,0,0,.648-2.418,3.61,3.61,0,0,0-.66-2.254,2.1,2.1,0,0,0-1.754-.863,2.075,2.075,0,0,0-1.727.852A3.925,3.925,0,0,0,106.281-4.133Zm12.141-3.023a4.331,4.331,0,0,0-.711-.055A1.9,1.9,0,0,0,115.781-6V0h-1.445V-8.453h1.406l.023.977a2.251,2.251,0,0,1,2.016-1.133,1.477,1.477,0,0,1,.641.109ZM124.656,0a3.036,3.036,0,0,1-.2-.891A3.225,3.225,0,0,1,122.047.156,2.984,2.984,0,0,1,120-.551a2.288,2.288,0,0,1-.8-1.793,2.39,2.39,0,0,1,1-2.051,4.733,4.733,0,0,1,2.824-.73h1.406v-.664A1.623,1.623,0,0,0,123.977-7a1.821,1.821,0,0,0-1.336-.449,2.108,2.108,0,0,0-1.3.391,1.151,1.151,0,0,0-.523.945h-1.453a2,2,0,0,1,.449-1.223,3.066,3.066,0,0,1,1.219-.934,4.1,4.1,0,0,1,1.691-.344,3.342,3.342,0,0,1,2.289.73,2.635,2.635,0,0,1,.859,2.012v3.891a4.757,4.757,0,0,0,.3,1.852V0Zm-2.4-1.1a2.54,2.54,0,0,0,1.289-.352,2.127,2.127,0,0,0,.883-.914V-4.1H123.3q-2.656,0-2.656,1.555a1.316,1.316,0,0,0,.453,1.063A1.742,1.742,0,0,0,122.258-1.1Z" transform="translate(912 1837)" fill="#12263f"/>
    <path id="Trazado_983573" data-name="Trazado 983573" d="M10.07-5.32A7.037,7.037,0,0,1,9.508-2.4,4.261,4.261,0,0,1,7.914-.5,4.385,4.385,0,0,1,5.508.156,4.347,4.347,0,0,1,3.125-.5,4.363,4.363,0,0,1,1.512-2.387a6.752,6.752,0,0,1-.59-2.832v-.82a6.953,6.953,0,0,1,.57-2.9,4.347,4.347,0,0,1,1.613-1.926,4.329,4.329,0,0,1,2.387-.668,4.41,4.41,0,0,1,2.41.66A4.253,4.253,0,0,1,9.508-8.957a7.071,7.071,0,0,1,.563,2.918ZM8.578-6.055A5.1,5.1,0,0,0,7.766-9.16a2.68,2.68,0,0,0-2.273-1.082A2.651,2.651,0,0,0,3.254-9.16a5,5,0,0,0-.84,3v.836a5.107,5.107,0,0,0,.824,3.082,2.662,2.662,0,0,0,2.27,1.121,2.652,2.652,0,0,0,2.25-1.059,5.079,5.079,0,0,0,.82-3.035Zm4.883-2.4.047,1.063a3.08,3.08,0,0,1,2.531-1.219q2.68,0,2.7,3.023V0H17.3V-5.594a1.946,1.946,0,0,0-.418-1.352A1.675,1.675,0,0,0,15.6-7.383a2.086,2.086,0,0,0-1.234.375,2.546,2.546,0,0,0-.828.984V0H12.094V-8.453ZM20.57-4.3a4.952,4.952,0,0,1,.922-3.129,2.915,2.915,0,0,1,2.414-1.184,2.932,2.932,0,0,1,2.352,1.016V-12H27.7V0H26.375L26.3-.906A2.943,2.943,0,0,1,23.891.156a2.887,2.887,0,0,1-2.395-1.2,5.008,5.008,0,0,1-.926-3.141Zm1.445.164a3.749,3.749,0,0,0,.594,2.25,1.92,1.92,0,0,0,1.641.813A2.108,2.108,0,0,0,26.258-2.3V-6.187a2.125,2.125,0,0,0-1.992-1.2,1.929,1.929,0,0,0-1.656.82A4.128,4.128,0,0,0,22.016-4.133ZM35.164,0a3.036,3.036,0,0,1-.2-.891A3.225,3.225,0,0,1,32.555.156,2.984,2.984,0,0,1,30.5-.551a2.287,2.287,0,0,1-.8-1.793,2.39,2.39,0,0,1,1-2.051,4.733,4.733,0,0,1,2.824-.73h1.406v-.664A1.623,1.623,0,0,0,34.484-7a1.821,1.821,0,0,0-1.336-.449,2.107,2.107,0,0,0-1.3.391,1.151,1.151,0,0,0-.523.945H29.875a2,2,0,0,1,.449-1.223,3.066,3.066,0,0,1,1.219-.934,4.1,4.1,0,0,1,1.691-.344,3.342,3.342,0,0,1,2.289.73,2.635,2.635,0,0,1,.859,2.012v3.891a4.757,4.757,0,0,0,.3,1.852V0Zm-2.4-1.1a2.54,2.54,0,0,0,1.289-.352,2.127,2.127,0,0,0,.883-.914V-4.1H33.8q-2.656,0-2.656,1.555A1.316,1.316,0,0,0,31.6-1.484,1.742,1.742,0,0,0,32.766-1.1Zm11.2-7.352.039.938a3.122,3.122,0,0,1,2.508-1.094A2.417,2.417,0,0,1,48.93-7.25a3.2,3.2,0,0,1,1.1-.984,3.242,3.242,0,0,1,1.6-.375q2.781,0,2.828,2.945V0H53.008V-5.578a1.941,1.941,0,0,0-.414-1.355A1.823,1.823,0,0,0,51.2-7.383a1.917,1.917,0,0,0-1.336.48,1.949,1.949,0,0,0-.617,1.293V0H47.8V-5.539a1.613,1.613,0,0,0-1.8-1.844,1.934,1.934,0,0,0-1.945,1.211V0H42.6V-8.453ZM56.25-4.3a4.993,4.993,0,0,1,.488-2.234A3.643,3.643,0,0,1,58.1-8.07a3.7,3.7,0,0,1,1.988-.539,3.565,3.565,0,0,1,2.793,1.2,4.6,4.6,0,0,1,1.066,3.18v.1a5.036,5.036,0,0,1-.473,2.215A3.589,3.589,0,0,1,62.121-.391,3.743,3.743,0,0,1,60.1.156a3.556,3.556,0,0,1-2.785-1.2A4.575,4.575,0,0,1,56.25-4.2Zm1.453.172a3.616,3.616,0,0,0,.652,2.258,2.088,2.088,0,0,0,1.746.852,2.075,2.075,0,0,0,1.75-.863A3.955,3.955,0,0,0,62.5-4.3a3.61,3.61,0,0,0-.66-2.254,2.1,2.1,0,0,0-1.754-.863,2.075,2.075,0,0,0-1.727.852A3.925,3.925,0,0,0,57.7-4.133Zm7.7-.164a4.952,4.952,0,0,1,.922-3.129,2.915,2.915,0,0,1,2.414-1.184,2.932,2.932,0,0,1,2.352,1.016V-12h1.445V0H71.211l-.07-.906A2.943,2.943,0,0,1,68.727.156a2.887,2.887,0,0,1-2.395-1.2,5.008,5.008,0,0,1-.926-3.141Zm1.445.164a3.749,3.749,0,0,0,.594,2.25,1.92,1.92,0,0,0,1.641.813A2.109,2.109,0,0,0,71.094-2.3V-6.187a2.125,2.125,0,0,0-1.992-1.2,1.929,1.929,0,0,0-1.656.82A4.128,4.128,0,0,0,66.852-4.133ZM80-.836a3.07,3.07,0,0,1-2.477.992,2.628,2.628,0,0,1-2.059-.785,3.4,3.4,0,0,1-.715-2.324v-5.5H76.2v5.461q0,1.922,1.563,1.922a2.163,2.163,0,0,0,2.2-1.234V-8.453h1.445V0H80.031ZM85.172,0H83.727V-12h1.445ZM92.7,0a3.036,3.036,0,0,1-.2-.891A3.225,3.225,0,0,1,90.094.156a2.984,2.984,0,0,1-2.051-.707,2.288,2.288,0,0,1-.8-1.793,2.39,2.39,0,0,1,1-2.051,4.733,4.733,0,0,1,2.824-.73h1.406v-.664A1.623,1.623,0,0,0,92.023-7a1.821,1.821,0,0,0-1.336-.449,2.108,2.108,0,0,0-1.3.391,1.151,1.151,0,0,0-.523.945H87.414a2,2,0,0,1,.449-1.223,3.066,3.066,0,0,1,1.219-.934,4.1,4.1,0,0,1,1.691-.344,3.342,3.342,0,0,1,2.289.73,2.635,2.635,0,0,1,.859,2.012v3.891a4.757,4.757,0,0,0,.3,1.852V0ZM90.3-1.1a2.54,2.54,0,0,0,1.289-.352,2.127,2.127,0,0,0,.883-.914V-4.1H91.344q-2.656,0-2.656,1.555a1.316,1.316,0,0,0,.453,1.063A1.742,1.742,0,0,0,90.3-1.1Zm5.531-3.2a4.952,4.952,0,0,1,.922-3.129,2.915,2.915,0,0,1,2.414-1.184,2.932,2.932,0,0,1,2.352,1.016V-12h1.445V0h-1.328l-.07-.906A2.943,2.943,0,0,1,99.156.156a2.887,2.887,0,0,1-2.395-1.2,5.008,5.008,0,0,1-.926-3.141Zm1.445.164a3.749,3.749,0,0,0,.594,2.25,1.92,1.92,0,0,0,1.641.813A2.109,2.109,0,0,0,101.523-2.3V-6.187a2.125,2.125,0,0,0-1.992-1.2,1.929,1.929,0,0,0-1.656.82A4.128,4.128,0,0,0,97.281-4.133ZM110.43,0a3.036,3.036,0,0,1-.2-.891A3.225,3.225,0,0,1,107.82.156a2.984,2.984,0,0,1-2.051-.707,2.288,2.288,0,0,1-.8-1.793,2.39,2.39,0,0,1,1-2.051,4.733,4.733,0,0,1,2.824-.73H110.2v-.664A1.623,1.623,0,0,0,109.75-7a1.821,1.821,0,0,0-1.336-.449,2.108,2.108,0,0,0-1.3.391,1.151,1.151,0,0,0-.523.945h-1.453a2,2,0,0,1,.449-1.223,3.066,3.066,0,0,1,1.219-.934,4.1,4.1,0,0,1,1.691-.344,3.342,3.342,0,0,1,2.289.73,2.635,2.635,0,0,1,.859,2.012v3.891a4.757,4.757,0,0,0,.3,1.852V0Zm-2.4-1.1a2.54,2.54,0,0,0,1.289-.352,2.127,2.127,0,0,0,.883-.914V-4.1H109.07q-2.656,0-2.656,1.555a1.316,1.316,0,0,0,.453,1.063A1.742,1.742,0,0,0,108.031-1.1Zm16.344-3.922H119.6V0h-1.5V-11.375h7.047v1.227H119.6v3.9h4.773Zm4.508-6.352L132.6-2.094l3.719-9.281h1.945V0h-1.5V-4.43l.141-4.781L133.172,0h-1.148L128.3-9.187l.148,4.758V0h-1.5V-11.375Z" transform="translate(564 2051)" fill="#12263f"/>
    <path id="Trazado_983574" data-name="Trazado 983574" d="M10.07-5.32A7.037,7.037,0,0,1,9.508-2.4,4.261,4.261,0,0,1,7.914-.5,4.385,4.385,0,0,1,5.508.156,4.347,4.347,0,0,1,3.125-.5,4.363,4.363,0,0,1,1.512-2.387a6.752,6.752,0,0,1-.59-2.832v-.82a6.953,6.953,0,0,1,.57-2.9,4.347,4.347,0,0,1,1.613-1.926,4.329,4.329,0,0,1,2.387-.668,4.41,4.41,0,0,1,2.41.66A4.253,4.253,0,0,1,9.508-8.957a7.071,7.071,0,0,1,.563,2.918ZM8.578-6.055A5.1,5.1,0,0,0,7.766-9.16a2.68,2.68,0,0,0-2.273-1.082A2.651,2.651,0,0,0,3.254-9.16a5,5,0,0,0-.84,3v.836a5.107,5.107,0,0,0,.824,3.082,2.662,2.662,0,0,0,2.27,1.121,2.652,2.652,0,0,0,2.25-1.059,5.079,5.079,0,0,0,.82-3.035Zm4.883-2.4.047,1.063a3.08,3.08,0,0,1,2.531-1.219q2.68,0,2.7,3.023V0H17.3V-5.594a1.946,1.946,0,0,0-.418-1.352A1.675,1.675,0,0,0,15.6-7.383a2.086,2.086,0,0,0-1.234.375,2.546,2.546,0,0,0-.828.984V0H12.094V-8.453ZM20.57-4.3a4.952,4.952,0,0,1,.922-3.129,2.915,2.915,0,0,1,2.414-1.184,2.932,2.932,0,0,1,2.352,1.016V-12H27.7V0H26.375L26.3-.906A2.943,2.943,0,0,1,23.891.156a2.887,2.887,0,0,1-2.395-1.2,5.008,5.008,0,0,1-.926-3.141Zm1.445.164a3.749,3.749,0,0,0,.594,2.25,1.92,1.92,0,0,0,1.641.813A2.108,2.108,0,0,0,26.258-2.3V-6.187a2.125,2.125,0,0,0-1.992-1.2,1.929,1.929,0,0,0-1.656.82A4.128,4.128,0,0,0,22.016-4.133ZM35.164,0a3.036,3.036,0,0,1-.2-.891A3.225,3.225,0,0,1,32.555.156,2.984,2.984,0,0,1,30.5-.551a2.287,2.287,0,0,1-.8-1.793,2.39,2.39,0,0,1,1-2.051,4.733,4.733,0,0,1,2.824-.73h1.406v-.664A1.623,1.623,0,0,0,34.484-7a1.821,1.821,0,0,0-1.336-.449,2.107,2.107,0,0,0-1.3.391,1.151,1.151,0,0,0-.523.945H29.875a2,2,0,0,1,.449-1.223,3.066,3.066,0,0,1,1.219-.934,4.1,4.1,0,0,1,1.691-.344,3.342,3.342,0,0,1,2.289.73,2.635,2.635,0,0,1,.859,2.012v3.891a4.757,4.757,0,0,0,.3,1.852V0Zm-2.4-1.1a2.54,2.54,0,0,0,1.289-.352,2.127,2.127,0,0,0,.883-.914V-4.1H33.8q-2.656,0-2.656,1.555A1.316,1.316,0,0,0,31.6-1.484,1.742,1.742,0,0,0,32.766-1.1ZM44.773-11.375l3.719,9.281,3.719-9.281h1.945V0h-1.5V-4.43L52.8-9.211,49.063,0H47.914L44.188-9.187l.148,4.758V0h-1.5V-11.375ZM56.2-4.3a4.993,4.993,0,0,1,.488-2.234A3.643,3.643,0,0,1,58.043-8.07a3.7,3.7,0,0,1,1.988-.539,3.565,3.565,0,0,1,2.793,1.2,4.6,4.6,0,0,1,1.066,3.18v.1a5.036,5.036,0,0,1-.473,2.215A3.589,3.589,0,0,1,62.066-.391a3.743,3.743,0,0,1-2.02.547,3.556,3.556,0,0,1-2.785-1.2A4.575,4.575,0,0,1,56.2-4.2Zm1.453.172A3.616,3.616,0,0,0,58.3-1.875a2.088,2.088,0,0,0,1.746.852,2.075,2.075,0,0,0,1.75-.863A3.955,3.955,0,0,0,62.445-4.3a3.61,3.61,0,0,0-.66-2.254,2.1,2.1,0,0,0-1.754-.863A2.075,2.075,0,0,0,58.3-6.57,3.925,3.925,0,0,0,57.648-4.133Zm7.7-.164a4.952,4.952,0,0,1,.922-3.129,2.915,2.915,0,0,1,2.414-1.184,2.932,2.932,0,0,1,2.352,1.016V-12h1.445V0H71.156l-.07-.906A2.943,2.943,0,0,1,68.672.156a2.887,2.887,0,0,1-2.395-1.2,5.008,5.008,0,0,1-.926-3.141Zm1.445.164a3.749,3.749,0,0,0,.594,2.25,1.92,1.92,0,0,0,1.641.813A2.109,2.109,0,0,0,71.039-2.3V-6.187a2.125,2.125,0,0,0-1.992-1.2,1.929,1.929,0,0,0-1.656.82A4.128,4.128,0,0,0,66.8-4.133Zm13.148,3.3a3.07,3.07,0,0,1-2.477.992A2.628,2.628,0,0,1,75.41-.629,3.4,3.4,0,0,1,74.7-2.953v-5.5h1.445v5.461q0,1.922,1.563,1.922a2.163,2.163,0,0,0,2.2-1.234V-8.453h1.445V0H79.977ZM85.117,0H83.672V-12h1.445Zm7.531,0a3.036,3.036,0,0,1-.2-.891A3.225,3.225,0,0,1,90.039.156a2.984,2.984,0,0,1-2.051-.707,2.288,2.288,0,0,1-.8-1.793,2.39,2.39,0,0,1,1-2.051,4.733,4.733,0,0,1,2.824-.73h1.406v-.664A1.623,1.623,0,0,0,91.969-7a1.821,1.821,0,0,0-1.336-.449,2.108,2.108,0,0,0-1.3.391,1.151,1.151,0,0,0-.523.945H87.359a2,2,0,0,1,.449-1.223,3.066,3.066,0,0,1,1.219-.934,4.1,4.1,0,0,1,1.691-.344,3.342,3.342,0,0,1,2.289.73,2.635,2.635,0,0,1,.859,2.012v3.891a4.757,4.757,0,0,0,.3,1.852V0Zm-2.4-1.1a2.54,2.54,0,0,0,1.289-.352,2.127,2.127,0,0,0,.883-.914V-4.1H91.289q-2.656,0-2.656,1.555a1.316,1.316,0,0,0,.453,1.063A1.742,1.742,0,0,0,90.25-1.1Zm5.531-3.2A4.952,4.952,0,0,1,96.7-7.426a2.915,2.915,0,0,1,2.414-1.184,2.932,2.932,0,0,1,2.352,1.016V-12h1.445V0h-1.328l-.07-.906A2.943,2.943,0,0,1,99.1.156a2.887,2.887,0,0,1-2.395-1.2,5.008,5.008,0,0,1-.926-3.141Zm1.445.164a3.749,3.749,0,0,0,.594,2.25,1.92,1.92,0,0,0,1.641.813A2.109,2.109,0,0,0,101.469-2.3V-6.187a2.125,2.125,0,0,0-1.992-1.2,1.929,1.929,0,0,0-1.656.82A4.128,4.128,0,0,0,97.227-4.133ZM110.375,0a3.036,3.036,0,0,1-.2-.891A3.225,3.225,0,0,1,107.766.156a2.984,2.984,0,0,1-2.051-.707,2.288,2.288,0,0,1-.8-1.793,2.39,2.39,0,0,1,1-2.051,4.733,4.733,0,0,1,2.824-.73h1.406v-.664A1.623,1.623,0,0,0,109.7-7a1.821,1.821,0,0,0-1.336-.449,2.108,2.108,0,0,0-1.3.391,1.151,1.151,0,0,0-.523.945h-1.453a2,2,0,0,1,.449-1.223,3.066,3.066,0,0,1,1.219-.934,4.1,4.1,0,0,1,1.691-.344,3.342,3.342,0,0,1,2.289.73,2.635,2.635,0,0,1,.859,2.012v3.891a4.757,4.757,0,0,0,.3,1.852V0Zm-2.4-1.1a2.54,2.54,0,0,0,1.289-.352,2.127,2.127,0,0,0,.883-.914V-4.1h-1.133q-2.656,0-2.656,1.555a1.316,1.316,0,0,0,.453,1.063A1.742,1.742,0,0,0,107.977-1.1Zm16.352-1.875h-4.766L118.492,0h-1.547l4.344-11.375H122.6L126.953,0h-1.539ZM120.016-4.2h3.867l-1.937-5.32Zm10.406-7.172,3.719,9.281,3.719-9.281H139.8V0h-1.5V-4.43l.141-4.781L134.711,0h-1.148l-3.727-9.187.148,4.758V0h-1.5V-11.375Z" transform="translate(912 2054)" fill="#12263f"/>
  </g>
</svg>
