<svg xmlns="http://www.w3.org/2000/svg" width="295" height="220" viewBox="0 0 295 220">
  <g id="Grupo_1115835" data-name="Grupo 1115835" transform="translate(-1125.051 -2050)">
    <rect id="Rectángulo_408137" data-name="Rectángulo 408137" width="295" height="220" transform="translate(1125.051 2050)" fill="#f7e081"/>
    <circle id="Elipse_11633" data-name="Elipse 11633" cx="24.5" cy="24.5" r="24.5" transform="translate(1248.051 2084.51)"/>
    <path id="Trazado_983495" data-name="Trazado 983495" d="M-3075.609-9507.5h-12.439l-12.833,125.479h38.2Z" transform="translate(4354.332 11616.51)"/>
    <g id="Grupo_1115833" data-name="Grupo 1115833">
      <path id="Sustracción_1" data-name="Sustracción 1" d="M4381.049,11666a29,29,0,1,1,0-58c.673,0,1.346.022,2,.067a29,29,0,0,0,0,57.866C4382.366,11665.979,4381.693,11666,4381.049,11666Z" transform="translate(-3154 -9527.99)" fill="#454545"/>
      <path id="Sustracción_2" data-name="Sustracción 2" d="M4373.565,11650a21.823,21.823,0,0,1-8.375-1.651,21.459,21.459,0,0,1-6.838-4.5,20.908,20.908,0,0,1-4.612-6.676,20.6,20.6,0,0,1,0-16.349,20.908,20.908,0,0,1,4.612-6.676,21.475,21.475,0,0,1,6.838-4.5,21.822,21.822,0,0,1,8.375-1.65c.5,0,1,.016,1.485.049a21.648,21.648,0,0,0-14.213,6.588,20.639,20.639,0,0,0,0,28.728,21.641,21.641,0,0,0,14.213,6.588C4374.543,11649.984,4374.043,11650,4373.565,11650Z" transform="translate(-3145 -9519.99)" fill="#454545"/>
      <path id="Sustracción_3" data-name="Sustracción 3" d="M4369.824,11640a19.35,19.35,0,0,1-6.918-1.258,17.925,17.925,0,0,1-5.649-3.429,15.963,15.963,0,0,1-3.81-5.087,14.581,14.581,0,0,1,0-12.456,15.97,15.97,0,0,1,3.81-5.086,17.925,17.925,0,0,1,5.649-3.429,19.35,19.35,0,0,1,6.918-1.258c.413,0,.825.012,1.227.037a18.56,18.56,0,0,0-11.741,5.02,14.862,14.862,0,0,0,0,21.888,18.548,18.548,0,0,0,11.741,5.02C4370.631,11639.988,4370.218,11640,4369.824,11640Z" transform="translate(-3132.5 -9514.99)" fill="#454545"/>
    </g>
    <g id="Grupo_1115834" data-name="Grupo 1115834" transform="translate(1302.05 2080.009)">
      <path id="Sustracción_1-2" data-name="Sustracción 1" d="M29,0a28.992,28.992,0,0,0-20.5,49.508A28.909,28.909,0,0,0,29,58c.673,0,1.346-.022,2-.067A29,29,0,0,1,31,.068C30.316.022,29.643,0,29,0Z" transform="translate(40.501 58.002) rotate(180)" fill="#454545"/>
      <path id="Sustracción_2-2" data-name="Sustracción 2" d="M21.516,0a21.823,21.823,0,0,0-8.375,1.651A21.459,21.459,0,0,0,6.3,6.151a20.908,20.908,0,0,0-4.612,6.676,20.6,20.6,0,0,0,0,16.349A20.908,20.908,0,0,0,6.3,35.852a21.475,21.475,0,0,0,6.838,4.5A21.822,21.822,0,0,0,21.516,42c.5,0,1-.016,1.485-.049A21.648,21.648,0,0,1,8.788,35.365a20.639,20.639,0,0,1,0-28.728A21.641,21.641,0,0,1,23,.05C22.493.017,21.993,0,21.516,0Z" transform="translate(31.501 50.002) rotate(180)" fill="#454545"/>
      <path id="Sustracción_3-2" data-name="Sustracción 3" d="M17.774,0a19.35,19.35,0,0,0-6.918,1.258A17.925,17.925,0,0,0,5.207,4.687,15.963,15.963,0,0,0,1.4,9.773a14.581,14.581,0,0,0,0,12.456,15.97,15.97,0,0,0,3.81,5.086,17.925,17.925,0,0,0,5.649,3.429A19.35,19.35,0,0,0,17.774,32c.413,0,.825-.012,1.227-.037A18.56,18.56,0,0,1,7.26,26.945,15.12,15.12,0,0,1,2.453,16,15.117,15.117,0,0,1,7.26,5.058,18.548,18.548,0,0,1,19,.038C18.582.013,18.168,0,17.774,0Z" transform="translate(19.001 45.002) rotate(180)" fill="#454545"/>
    </g>
  </g>
</svg>
