<svg xmlns="http://www.w3.org/2000/svg" xmlns:xlink="http://www.w3.org/1999/xlink" width="400" height="188" viewBox="0 0 400 188">
  <defs>
    <clipPath id="clip-path">
      <rect id="Rectángulo_408141" data-name="Rectángulo 408141" width="209.607" height="37.369" transform="translate(0 0)" fill="none" stroke="#f33" stroke-width="1.5"/>
    </clipPath>
    <clipPath id="clip-path-2">
      <rect id="Rectángulo_408142" data-name="Rectángulo 408142" width="216.421" height="24.401" transform="translate(0 0)" fill="none" stroke="#089f70" stroke-width="1.5"/>
    </clipPath>
    <clipPath id="clip-path-3">
      <rect id="Rectángulo_408143" data-name="Rectángulo 408143" width="199.949" height="18.636" transform="translate(0 0)" fill="none" stroke="#707070" stroke-width="1.5"/>
    </clipPath>
  </defs>
  <g id="Grupo_1115942" data-name="Grupo 1115942" transform="translate(5087 8138)">
    <path id="Trazado_983567" data-name="Trazado 983567" d="M0,0H400V188H0Z" transform="translate(-5087 -8138)" fill="#fee3e3"/>
    <g id="Grupo_1115837" data-name="Grupo 1115837" transform="translate(-5040 -8067.169)">
      <g id="Grupo_1115836" data-name="Grupo 1115836" transform="translate(0 0)" clip-path="url(#clip-path)">
        <path id="Trazado_983496" data-name="Trazado 983496" d="M.5,27.624C.5,26.076,2.848-4.893,3.854,9.043S3.518,41.56,5.531,34.128,8.549-7.06,9.891,2.23,8.5,45.571,11.375,35.823,15.592-5.512,16.934,2.54s-2.348,40.154,0,32.619,5.031-41.91,6.372-33.239.335,42.117,2.348,32.826S27.666-8.3,29.678,2.85s-1.342,42.736,1.342,31.588S34.709-6.131,36.05,4.088s-.335,36.852,1.677,29.11S41.416-4.583,42.758,4.708s-.335,34.065,1.677,27.872S48.795-.867,49.465,6.566,50.173,35.986,52,29.637s3.5-30.5,4.509-20.9-.776,28.8,1.457,20.9S62.21,2.85,63.216,9.353,64.557,33.508,65.9,27.624s2.683-22.3,4.025-15.174S70.93,30.1,72.606,26.386s1.342-17.962,3.354-12.7,2.348,14.555,4.025,10.22,1.677-15.794,3.689-9.291,1.006,16.1,3.689,9.6,3.689-5.265,5.366-2.477,2.012-9.291,4.7-4.336,2.683.619,4.7.31-.335,5.265,2.683,3.716,1.784-5.7,4.581-2.386,3.8,3.625,4.139,3.006,2.348-7.742,4.025-4.955,1.006,10.22,3.354,4.955,1.677-4.955,3.689-1.548.671,4.645,2.012,2.477,2.348-11.458,4.36-6.194,3.018,12.7,4.025,7.742,1.342-14.555,3.018-8.052,2.348,13.936,3.354,8.671,2.012-18.241,3.521-9.9S147.061,31.96,148.4,26.7s1.006-22.607,3.354-12.078,1.677,21.058,3.018,13.007S155.78.372,158.8,14.927s4.408,20.439,4.719,14.71-2.036-32.981-.024-21.523,6.037,29.11,6.372,23.226-2.348-37.573,0-22.967,4.36,29.161,5.366,23.586.335-36.233,3.018-23.536,5.7,25.394,5.7,25.394c1.006-29.42-1.342-41.5,1.677-26.013s3.354,35.923,4.36,24.775,0-40.259,1.342-28.181,3.018,36.852,4.36,27.872S195.02-11.4,197.032,4.708s4.025,37.162,4.7,28.491.671-38.4,2.683-25.7,3.018,32.517,3.689,23.226,1.342-24.155,1.677-25.394" transform="translate(-0.332 -0.345)" fill="none" stroke="#f33" stroke-miterlimit="10" stroke-width="1.5"/>
      </g>
    </g>
    <path id="Trazado_983569" data-name="Trazado 983569" d="M7.859-4.648h-4.5V0H1.016V-11.375H8.422v1.9H3.359v2.938h4.5Zm4.984-6.727,2.922,8.25,2.906-8.25H21.75V0H19.4V-3.109l.234-5.367L16.563,0H14.953L11.891-8.469l.234,5.359V0H9.781V-11.375Z" transform="translate(-4772 -8040)" fill="red"/>
    <g id="Grupo_1115839" data-name="Grupo 1115839" transform="translate(-5043.407 -8041.969)">
      <g id="Grupo_1115838" data-name="Grupo 1115838" transform="translate(0 25)" clip-path="url(#clip-path-2)">
        <path id="Trazado_983497" data-name="Trazado 983497" d="M.5,12.4s2.081,16.725,3.121,9.557S5.353-3.433,7.087,4.929s.347,21.8,2.081,14.933S11.409-5.048,12.543,2.778s1.134,24.85,2.868,18.876S17.145-5.524,18.185,2.54s2.428,25.386,3.468,19.413S24.428-4.03,25.469,5.825s.694,21.5,2.081,13.738,3.468-24.49,4.162-13.738.694,22.1,1.734,15.232S36.221-2.836,37.261,5.228s-1.04,22.1,1.387,14.336S40.036-5.822,41.77,2.839s2.775,25.983,3.815,18.517S47.666-4.628,49.4,5.825s.694,22.1,2.081,15.53S53.909-4.926,55.3,8.812s.694,18.517,2.428,10.752,2.081-22.1,3.815-11.349.694,15.829,2.428,7.168S65.7-4.628,67.782,9.111s.347,20.608,1.734,11.05,2.775-25.087,3.815-10.154.694,16.128,2.428,10.154,4.509-25.087,7.63-11.05,4.856,13.738,6.59,5.675,4.509-19.413,6.937-5.376,5.2,13.141,6.243,4.779S108.015-3.334,110.1,9.16s4.856,14.286,5.9,6.222,4.509-20.01,6.59-7.466,4.162,17.024,6.59,6.571,5.549-18.816,7.283-5.376,4.509,11.648,5.549,5.376,2.081-16.725,2.775-4.779,2.775,14.037,3.468,7.168S149.981-5.4,151.2,7.98s1.908,16.064,3.295,6.507,1.387-15.53,2.081-5.973S159,24.641,160.04,15.084s2.081-16.128,3.468-6.571,1.706,13.751,2.587,4.038,2.268-13,2.962-4.038,1.734,19.413,2.775,6.571S174.953-4.03,175.3,7.916s2.775,16.128,3.121,6.272.694-16.725,2.428-6.869,1.387,21.5,3.122,7.168,1.387-16.426,2.775-5.973,1.04,18.816,3.468,5.077,2.428-14.037,3.815-3.883.694,13.738,2.775,3.584.347-17.92,1.734-5.376,2.428,13.738,3.815,3.584,2.428-11.349,3.468-.6.123,11.959,1.8,1.649,3.432-11.193,4.113,0,1.028,13.284,2.068,2.532,1.04-21.8,2.775-7.168" transform="translate(-0.325 -0.351)" fill="none" stroke="#089f70" stroke-miterlimit="10" stroke-width="1.5"/>
      </g>
    </g>
    <g id="Grupo_1115841" data-name="Grupo 1115841" transform="translate(-5035.171 -8093)">
      <g id="Grupo_1115840" data-name="Grupo 1115840" transform="translate(0 0)" clip-path="url(#clip-path-3)">
        <path id="Trazado_983498" data-name="Trazado 983498" d="M.4,18.861c.96-1.28,38.4-30.083,80.649-8S129.694,2.219,158.177.619,200.1,14.061,200.1,14.061" transform="translate(-0.272 -0.34)" fill="none" stroke="#000" stroke-miterlimit="10" stroke-width="1.5"/>
      </g>
    </g>
    <path id="Trazado_983570" data-name="Trazado 983570" d="M7.438-2.344H3.328L2.547,0H.055L4.289-11.375H6.461L10.719,0H8.227Zm-3.477-1.9H6.8L5.375-8.5Zm10.883-7.133,2.922,8.25,2.906-8.25H23.75V0H21.4V-3.109l.234-5.367L18.563,0H16.953L13.891-8.469l.234,5.359V0H11.781V-11.375Z" transform="translate(-4772 -7999)" fill="#00aa48"/>
    <path id="Trazado_983571" data-name="Trazado 983571" d="M6.914-2.984A1.2,1.2,0,0,0,6.445-4a6.148,6.148,0,0,0-1.687-.75,11.963,11.963,0,0,1-1.93-.777A3.153,3.153,0,0,1,.891-8.352,2.747,2.747,0,0,1,1.41-10,3.389,3.389,0,0,1,2.9-11.125a5.616,5.616,0,0,1,2.184-.406,5.112,5.112,0,0,1,2.172.441,3.458,3.458,0,0,1,1.48,1.246,3.261,3.261,0,0,1,.527,1.828H6.922A1.534,1.534,0,0,0,6.43-9.23a2.023,2.023,0,0,0-1.383-.434A2.162,2.162,0,0,0,3.711-9.3a1.146,1.146,0,0,0-.477.957,1.1,1.1,0,0,0,.559.93,6.311,6.311,0,0,0,1.645.7A7.106,7.106,0,0,1,8.352-5.219,2.972,2.972,0,0,1,9.266-3,2.737,2.737,0,0,1,8.148-.684a4.891,4.891,0,0,1-3.008.84A5.808,5.808,0,0,1,2.75-.324,3.783,3.783,0,0,1,1.105-1.641,3.371,3.371,0,0,1,.539-3.578H2.891q0,1.883,2.25,1.883a2.189,2.189,0,0,0,1.3-.34A1.106,1.106,0,0,0,6.914-2.984ZM14.594.156A4.15,4.15,0,0,1,11.566-.984,4.054,4.054,0,0,1,10.4-4.023v-.219a5.106,5.106,0,0,1,.492-2.277,3.612,3.612,0,0,1,1.395-1.547,3.914,3.914,0,0,1,2.059-.543,3.508,3.508,0,0,1,2.73,1.094,4.444,4.444,0,0,1,1,3.1v.922H12.688a2.1,2.1,0,0,0,.66,1.328,2,2,0,0,0,1.395.5,2.437,2.437,0,0,0,2.039-.945l1.109,1.242A3.389,3.389,0,0,1,16.516-.246,4.511,4.511,0,0,1,14.594.156Zm-.258-6.945a1.411,1.411,0,0,0-1.09.455,2.357,2.357,0,0,0-.535,1.3h3.141v-.181a1.681,1.681,0,0,0-.406-1.165A1.456,1.456,0,0,0,14.336-6.789ZM21.43-8.453l.07.977a2.951,2.951,0,0,1,2.43-1.133,2.453,2.453,0,0,1,2,.789A3.682,3.682,0,0,1,26.6-5.461V0H24.344V-5.406a1.465,1.465,0,0,0-.312-1.043,1.4,1.4,0,0,0-1.039-.324,1.553,1.553,0,0,0-1.43.813V0H19.3V-8.453ZM25.914-11.9a2.187,2.187,0,0,1-.516,1.48,1.6,1.6,0,0,1-1.258.6,1.908,1.908,0,0,1-.527-.066,3.539,3.539,0,0,1-.637-.285,3.435,3.435,0,0,0-.586-.27A1.432,1.432,0,0,0,22-10.492a.627.627,0,0,0-.465.2.759.759,0,0,0-.191.555L20.031-9.82a2.22,2.22,0,0,1,.512-1.477,1.578,1.578,0,0,1,1.254-.609,1.614,1.614,0,0,1,.441.059,4.86,4.86,0,0,1,.676.285,4.392,4.392,0,0,0,.648.273,1.48,1.48,0,0,0,.375.047.659.659,0,0,0,.473-.191.728.728,0,0,0,.2-.551ZM33.211,0a2.507,2.507,0,0,1-.227-.758,2.732,2.732,0,0,1-2.133.914,3,3,0,0,1-2.059-.719,2.312,2.312,0,0,1-.816-1.812,2.389,2.389,0,0,1,1-2.062,4.915,4.915,0,0,1,2.879-.727h1.039v-.484a1.393,1.393,0,0,0-.3-.937,1.183,1.183,0,0,0-.949-.352,1.345,1.345,0,0,0-.895.273.929.929,0,0,0-.324.75H28.164a2.268,2.268,0,0,1,.453-1.359,3,3,0,0,1,1.281-.98,4.669,4.669,0,0,1,1.859-.355,3.689,3.689,0,0,1,2.48.785,2.747,2.747,0,0,1,.918,2.207v3.664a4.041,4.041,0,0,0,.336,1.82V0ZM31.344-1.57a1.945,1.945,0,0,0,.922-.223,1.462,1.462,0,0,0,.625-.6V-3.844h-.844q-1.7,0-1.8,1.172l-.008.133a.9.9,0,0,0,.3.7A1.153,1.153,0,0,0,31.344-1.57ZM39.273,0H37.008V-12h2.266Z" transform="translate(-4772 -8075)" fill="#12263f"/>
    <path id="Trazado_983568" data-name="Trazado 983568" d="M7.6-2.977H2.836L1.766,0H.219L4.563-11.375H5.875L10.227,0H8.688ZM3.289-4.2H7.156L5.219-9.523ZM13.7-11.375l3.719,9.281,3.719-9.281h1.945V0h-1.5V-4.43l.141-4.781L17.984,0H16.836L13.109-9.187l.148,4.758V0h-1.5V-11.375ZM32.227-2.117,34.2-8.453h1.547L32.344,1.3q-.789,2.109-2.508,2.109l-.273-.023-.539-.1V2.117l.391.031a1.923,1.923,0,0,0,1.145-.3A2.148,2.148,0,0,0,31.234.766l.32-.859L28.539-8.453h1.578ZM47.492-5.023H42.719V0h-1.5V-11.375h7.047v1.227H42.719v3.9h4.773ZM52-11.375l3.719,9.281,3.719-9.281h1.945V0h-1.5V-4.43l.141-4.781L56.289,0H55.141L51.414-9.187l.148,4.758V0h-1.5V-11.375Z" transform="translate(-4960 -8104)" fill="#12263f"/>
  </g>
</svg>
