<svg xmlns="http://www.w3.org/2000/svg" width="164.317" height="88.95" viewBox="0 0 164.317 88.95">
  <g id="Grupo_1105682" data-name="Grupo 1105682" transform="translate(11398.1 12942.832)" opacity="0.45">
    <path id="Trazado_873695" data-name="Trazado 873695" d="M451.307,118.494a11.224,11.224,0,1,1-11.224-11.224A11.217,11.217,0,0,1,451.307,118.494Z" transform="translate(-11755.433 -13016.775)" fill="#bfae88"/>
    <g id="Grupo_1099430" data-name="Grupo 1099430" transform="translate(-11398.1 -12942.702)">
      <path id="Trazado_873630" data-name="Trazado 873630" d="M422.611,96.52l6.592,4.093c-.3.3-17.191,8.7-16.89,30.828.258,22.038,17,29.363,17.191,29.492l-6.808,4.222c-5.9-3.727-17.126-13.486-17.385-33.65-.258-21.047,11.784-31.388,17.3-34.985Z" transform="translate(-384.518 -86.481)" fill="#bfae88"/>
      <path id="Trazado_873631" data-name="Trazado 873631" d="M427.347,101.28l6.463,4.028c-.3.366-11.482,6.032-11.288,20.25a22.288,22.288,0,0,0,11.719,19.6l-6.592,4.093c-4.265-2.736-11.935-9.63-12.107-23.589-.172-14.283,7.712-21.586,11.805-24.386Z" transform="translate(-372.709 -80.987)" fill="#bfae88"/>
      <path id="Trazado_873632" data-name="Trazado 873632" d="M417.615,91.86l6.592,4.115c-3.059,1.616-21.909,12.667-21.586,41.147.323,26.11,16.739,36.817,21.543,39.4l-6.657,4.158c-7.82-5.17-21.543-17.945-21.844-43.452C395.34,110.344,410.2,96.879,417.615,91.86Z" transform="translate(-395.658 -91.86)" fill="#bfae88"/>
    </g>
    <g id="Grupo_1099431" data-name="Grupo 1099431" transform="translate(-11295.335 -12942.832)">
      <path id="Trazado_873633" data-name="Trazado 873633" d="M457.944,96.46l-6.592,4.093c.3.3,17.191,8.7,16.889,30.828-.258,22.038-17,29.363-17.191,29.492l6.808,4.222c5.9-3.727,17.126-13.486,17.385-33.65C475.5,110.4,463.459,100.058,457.944,96.46Z" transform="translate(-434.484 -86.421)" fill="#bfae88"/>
      <path id="Trazado_873634" data-name="Trazado 873634" d="M450.254,101.22l-6.463,4.028c.3.366,11.482,6.032,11.288,20.25a22.288,22.288,0,0,1-11.719,19.6l6.592,4.093c4.266-2.736,11.935-9.63,12.107-23.589.172-14.283-7.712-21.586-11.805-24.386Z" transform="translate(-443.36 -80.927)" fill="#bfae88"/>
      <path id="Trazado_873635" data-name="Trazado 873635" d="M465.272,91.8l-6.592,4.115c3.059,1.616,21.909,12.667,21.586,41.147-.323,26.11-16.739,36.817-21.543,39.4l6.657,4.158c7.82-5.17,21.543-17.945,21.844-43.452C487.547,110.284,472.683,96.819,465.272,91.8Z" transform="translate(-425.677 -91.8)" fill="#bfae88"/>
    </g>
  </g>
</svg>
