<svg xmlns="http://www.w3.org/2000/svg" width="102.388" height="102.388" viewBox="0 0 102.388 102.388">
  <g id="Grupo_1105681" data-name="Grupo 1105681" transform="translate(0.001)">
    <ellipse id="Elipse_11501" data-name="Elipse 11501" cx="51.194" cy="51.194" rx="51.194" ry="51.194" transform="translate(-0.001 0)" fill="#bfae88"/>
    <g id="ondas-de-radio_1_" data-name="ondas-de-radio (1)" transform="translate(17.298 24.502)">
      <path id="Trazado_873725" data-name="Trazado 873725" d="M1.13,67.741H8.756a1.13,1.13,0,0,1,1.13,1.13v7.691h5.367V68.871a1.13,1.13,0,0,1,1.13-1.13h7.626a1.13,1.13,0,0,1,1.13,1.13v7.691h5.367V63.944a1.13,1.13,0,0,1,1.13-1.13h5.649a1.13,1.13,0,0,1,1.056.728l4.948,13.019H52.04c-.353-5.876-.736-11.831-1.439-16.267-1.061-6.7-2.414-7.035-2.675-7.035-.165,0-1.031.167-1.93,3.456a63.961,63.961,0,0,0-1.572,10.59,1.13,1.13,0,1,1-2.251-.2,65.93,65.93,0,0,1,1.643-10.99c.346-1.266,1.4-5.12,4.11-5.12,4.518,0,5.418,9.685,6.377,25.562H66.659a1.13,1.13,0,0,1,0,2.26H64.937A165.759,165.759,0,0,1,63.419,95.7c-.676,4.042-1.841,8.682-4.866,8.682-4.518,0-5.418-9.685-6.377-25.562H43.289L38.34,91.841a1.13,1.13,0,0,1-1.056.728H31.635a1.13,1.13,0,0,1-1.13-1.13V83.756a1.13,1.13,0,0,1,2.26,0V90.31H36.5l4.8-12.618L36.5,65.074h-3.74V77.692a1.13,1.13,0,0,1-1.13,1.13H24.009a1.13,1.13,0,0,1-1.13-1.13V70H17.512v7.691a1.13,1.13,0,0,1-1.13,1.13H8.756a1.13,1.13,0,0,1-1.13-1.13V70H2.26v7.691a1.13,1.13,0,0,1-2.26,0V68.871A1.13,1.13,0,0,1,1.13,67.741ZM55.877,95.089c1.061,6.7,2.415,7.035,2.675,7.035.154,0,1.532-.191,2.637-6.795a162.9,162.9,0,0,0,1.484-16.508H54.439C54.791,84.7,55.174,90.652,55.877,95.089Z" transform="translate(0 -51)" fill="#fff"/>
    </g>
  </g>
</svg>
