<svg xmlns="http://www.w3.org/2000/svg" width="53.041" height="52" viewBox="0 0 53.041 52">
  <g id="Grupo_1105560" data-name="Grupo 1105560" transform="translate(-194.73 -5774.494)">
    <rect id="Rectángulo_402557" data-name="Rectángulo 402557" width="26" height="52" rx="3" transform="translate(194.73 5774.494)" fill="#fdc8c8"/>
    <g id="telefono-analogico" transform="translate(200.309 5749.603)">
      <g id="Grupo_1105606" data-name="Grupo 1105606" transform="translate(0.695 36.821)">
        <g id="Grupo_1105604" data-name="Grupo 1105604" transform="translate(0 0)">
          <path id="Trazado_978830" data-name="Trazado 978830" d="M45,408.373H84.12v5.562H45Z" transform="translate(-41.524 -374.559)" fill="#fff" fill-rule="evenodd"/>
          <path id="Trazado_978831" data-name="Trazado 978831" d="M60,126.5v9.734H96.338V126.5c-4.536-2.571-9.734-6.293-9.734-12.51v-5.561l-3.223,0L81.992,111.9l-7.648.018-1.39-3.472H69.733v5.545C69.733,120.21,64.535,123.932,60,126.5Zm18.169,6.257a8.265,8.265,0,1,1,8.265-8.265,8.265,8.265,0,0,1-8.265,8.265Z" transform="translate(-55.132 -102.423)" fill="#ee795f" fill-rule="evenodd"/>
          <circle id="Elipse_11541" data-name="Elipse 11541" cx="5.484" cy="5.484" r="5.484" transform="translate(17.553 16.589)" fill="#9c9a9f"/>
          <path id="Trazado_978832" data-name="Trazado 978832" d="M183.376,200.833a8.265,8.265,0,1,0-8.265,8.265A8.265,8.265,0,0,0,183.376,200.833Zm-8.265-5.484a5.484,5.484,0,1,1-5.484,5.484A5.484,5.484,0,0,1,175.112,195.349Z" transform="translate(-152.075 -178.76)" fill="#fff" fill-rule="evenodd"/>
          <path id="Trazado_978833" data-name="Trazado 978833" d="M17.929,149.393A1.4,1.4,0,0,0,19.319,148v-2.086H7.5V148a1.4,1.4,0,0,0,1.391,1.391Z" transform="translate(-7.5 -136.433)" fill="#fff" fill-rule="evenodd"/>
          <path id="Trazado_978834" data-name="Trazado 978834" d="M7.5,53.1H19.319V51.029a1.4,1.4,0,0,1,1.391-1.391l19.653-.018a1.394,1.394,0,0,1,1.391,1.391V53.1H53.572V48.925c0-7.083-46.072-7.083-46.072,0Z" transform="translate(-7.5 -43.613)" fill="#ee795f" fill-rule="evenodd"/>
          <path id="Trazado_978835" data-name="Trazado 978835" d="M377,148a1.4,1.4,0,0,0,1.391,1.391h9.038A1.4,1.4,0,0,0,388.819,148v-2.086H377Z" transform="translate(-342.747 -136.433)" fill="#fff" fill-rule="evenodd"/>
          <path id="Trazado_978836" data-name="Trazado 978836" d="M9.586,145.918H7.5V148a1.4,1.4,0,0,0,1.391,1.391h2.086A1.4,1.4,0,0,1,9.586,148Z" transform="translate(-7.5 -136.434)" fill="#83f2f8" fill-rule="evenodd"/>
          <path id="Trazado_978837" data-name="Trazado 978837" d="M7.5,81.833H9.586V75.285C8.263,75.961,7.5,76.752,7.5,77.661Z" transform="translate(-7.5 -72.349)" fill="#d34f30" fill-rule="evenodd"/>
          <path id="Trazado_978838" data-name="Trazado 978838" d="M45,408.373h2.086v5.562H45Z" transform="translate(-41.524 -374.559)" fill="#83f2f8" fill-rule="evenodd"/>
          <path id="Trazado_978839" data-name="Trazado 978839" d="M176.154,192.634a8.265,8.265,0,0,0,0,16.4,8.265,8.265,0,1,1,0-16.4Z" transform="translate(-152.075 -178.761)" fill="#83f2f8" fill-rule="evenodd"/>
          <path id="Trazado_978840" data-name="Trazado 978840" d="M60,291.118v9.734h2.086V289.866C61.388,290.313,60.686,290.729,60,291.118Z" transform="translate(-55.132 -267.038)" fill="#d34f30" fill-rule="evenodd"/>
          <path id="Trazado_978841" data-name="Trazado 978841" d="M196.847,228.052a5.486,5.486,0,0,0,6.526,5.384,5.484,5.484,0,0,1,0-10.768,5.486,5.486,0,0,0-6.526,5.384Z" transform="translate(-179.294 -205.979)" fill="#79787d" fill-rule="evenodd"/>
        </g>
        <g id="Grupo_1105605" data-name="Grupo 1105605" transform="translate(39.815 4.02)">
          <path id="Trazado_978842" data-name="Trazado 978842" d="M441.172,89.755h-1.39V88.365h1.39Zm-2.781-1.391H437V86.974h1.391Z" transform="translate(-437.001 -86.974)" fill="#fff"/>
        </g>
      </g>
      <g id="Grupo_1105607" data-name="Grupo 1105607" transform="translate(0 36.127)">
        <path id="Trazado_978843" data-name="Trazado 978843" d="M46.267,39.943c-3.259-2.674-12.767-3.453-16.7-3.664a94.836,94.836,0,0,0-21.58,1.144l.272,1.364a93.361,93.361,0,0,1,21.234-1.119c7.913.424,13.855,1.676,15.9,3.35a1.535,1.535,0,0,1,.688,1.115v3.476H35.644V44.219a2.09,2.09,0,0,0-2.084-2.086h0L13.9,42.151a2.089,2.089,0,0,0-2.085,2.086v1.372H1.391V42.133c0-1.081,2.051-2.219,5.488-3.044l-.325-1.352C2.144,38.8,0,40.234,0,42.133V48.39a2.088,2.088,0,0,0,2.086,2.086h9.038A2.088,2.088,0,0,0,13.21,48.39V44.237a.7.7,0,0,1,.7-.7H14.6V48.39a10.252,10.252,0,0,1-2.982,7.152,26.272,26.272,0,0,1-6.4,4.753l-.352.2v9.443H3.476v6.953H38.425V75.5H4.867V71.33H42.6V75.5H39.815v1.391h4.171V69.939H42.6V60.5l-.352-.2a26.273,26.273,0,0,1-6.4-4.754,10.252,10.252,0,0,1-2.982-7.152V43.524h.7a.7.7,0,0,1,.694.7V48.39a2.088,2.088,0,0,0,2.086,2.086h9.038a2.088,2.088,0,0,0,2.086-2.086V42.133a2.831,2.831,0,0,0-1.2-2.19ZM11.124,49.086H2.086a.7.7,0,0,1-.7-.7V47H11.819V48.39A.7.7,0,0,1,11.124,49.086Zm16.792-5.557-.832,2.078-6.707.016-.835-2.086ZM41.206,61.3v8.635H6.257V61.3c4.609-2.656,9.734-6.52,9.734-12.914V43.54l2.054,0,1.392,3.477,8.589-.021,1.389-3.467,2.057,0V48.39C31.472,54.784,36.6,58.648,41.206,61.3Zm4.171-12.219H36.339a.7.7,0,0,1-.7-.7V47H46.072V48.39A.7.7,0,0,1,45.377,49.086Z" transform="translate(0 -36.127)"/>
        <path id="Trazado_978844" data-name="Trazado 978844" d="M168.307,185.069a8.96,8.96,0,1,0,8.96,8.96A8.97,8.97,0,0,0,168.307,185.069Zm6.176,4.591-1.209.7a6.23,6.23,0,0,0-1.3-1.3l.7-1.209A7.633,7.633,0,0,1,174.483,189.66Zm-6.871,10.507v1.4a7.507,7.507,0,0,1-2.47-.663l.7-1.21A6.126,6.126,0,0,0,167.612,200.167Zm1.391,0a6.123,6.123,0,0,0,1.772-.475l.7,1.21a7.506,7.506,0,0,1-2.47.663Zm-.7-1.35a4.788,4.788,0,1,1,4.788-4.788A4.794,4.794,0,0,1,168.307,198.817Zm-6.139-5.484h-1.4a7.507,7.507,0,0,1,.663-2.47l1.21.7A6.127,6.127,0,0,0,162.168,193.333Zm0,1.391a6.129,6.129,0,0,0,.475,1.772l-1.21.7a7.507,7.507,0,0,1-.663-2.47ZM169,187.89v-1.4a7.508,7.508,0,0,1,2.47.663l-.7,1.21A6.129,6.129,0,0,0,169,187.89Zm-1.391,0a6.13,6.13,0,0,0-1.772.475l-.7-1.21a7.507,7.507,0,0,1,2.47-.663Zm6.834,6.834h1.4a7.507,7.507,0,0,1-.663,2.47l-1.21-.7A6.129,6.129,0,0,0,174.445,194.724Zm0-1.391a6.131,6.131,0,0,0-.475-1.772l1.21-.7a7.507,7.507,0,0,1,.663,2.47Zm-10.507-5.48.7,1.209a6.229,6.229,0,0,0-1.3,1.3l-1.209-.7A7.632,7.632,0,0,1,163.938,187.853ZM162.131,198.4l1.209-.7a6.232,6.232,0,0,0,1.3,1.3l-.7,1.209A7.633,7.633,0,0,1,162.131,198.4Zm10.544,1.807-.7-1.209a6.232,6.232,0,0,0,1.3-1.3l1.209.7A7.629,7.629,0,0,1,172.675,200.2Z" transform="translate(-144.575 -171.262)"/>
        <path id="Trazado_978845" data-name="Trazado 978845" d="M203.5,430.873h9.734v1.391H203.5Z" transform="translate(-184.635 -394.28)"/>
      </g>
    </g>
  </g>
</svg>
